<?xml version="1.0" encoding="UTF-8"?>
<svg width="54px" height="44px" viewBox="0 0 54 44" version="1.1" xmlns="http://www.w3.org/2000/svg" xmlns:xlink="http://www.w3.org/1999/xlink">
    <title>spots</title>
    <g id="Landing" stroke="none" stroke-width="1" fill="none" fill-rule="evenodd">
        <g id="1.1.1.0.0.BS_landingViaBCP_STP_desktop" transform="translate(-695.000000, -679.000000)">
            <g id="spots" transform="translate(695.800000, 679.600000)">
                <path d="M2.8,0 L47.6,0 C49.1463973,0 50.4,1.2536027 50.4,2.8 L50.4,28 C50.4,29.5463973 49.1463973,30.8 47.6,30.8 L2.8,30.8 C1.2536027,30.8 0,29.5463973 0,28 L0,2.8 C0,1.2536027 1.2536027,0 2.8,0 Z" id="Path" fill="#D0E5FF"></path>
                <path d="M22.4,23.8 C23.1731986,23.8 23.8,24.4268014 23.8,25.2 C23.8,25.9731986 23.1731986,26.6 22.4,26.6 L5.6,26.6 C4.82680135,26.6 4.2,25.9731986 4.2,25.2 C4.2,24.4268014 4.82680135,23.8 5.6,23.8 L22.4,23.8 Z M44.8,18.2 C45.5731986,18.2 46.2,18.8268014 46.2,19.6 C46.2,20.3731986 45.5731986,21 44.8,21 L5.6,21 C4.82680135,21 4.2,20.3731986 4.2,19.6 C4.2,18.8268014 4.82680135,18.2 5.6,18.2 L44.8,18.2 Z" id="Shape" fill="#8FBAFC"></path>
                <path d="M39.2,23.8 L44.8,23.8 C45.5731986,23.8 46.2,24.4268014 46.2,25.2 C46.2,25.9731986 45.5731986,26.6 44.8,26.6 L39.2,26.6 C38.4268014,26.6 37.8,25.9731986 37.8,25.2 C37.8,24.4268014 38.4268014,23.8 39.2,23.8 Z" id="Rectangle" fill="#5B90E9"></path>
                <path d="M5.6,4.2 L12.6,4.2 C13.3731986,4.2 14,4.82680135 14,5.6 L14,8.4 C14,9.17319865 13.3731986,9.8 12.6,9.8 L5.6,9.8 C4.82680135,9.8 4.2,9.17319865 4.2,8.4 L4.2,5.6 C4.2,4.82680135 4.82680135,4.2 5.6,4.2 Z" id="Rectangle" fill="#5B90E9"></path>
                <circle id="Oval" fill="#FF9333" cx="42" cy="32.2" r="11.2"></circle>
                <g id="e/ic_exclamation_triangle_r" transform="translate(35.000000, 25.200000)" fill="#FFFFFF">
                    <path d="M7.58721889,0.316093526 L7.62792596,0.386964291 L13.9295405,12.987742 C13.9781017,13.0848455 14.0033826,13.1919107 14.0033826,13.3004655 C14.0033826,13.6592119 13.7331544,13.954885 13.3850173,13.9952937 L13.3033826,14 L0.700153442,14 C0.591526396,14 0.484389922,13.974736 0.387221796,13.9262071 C0.0661055552,13.7658312 -0.0777492629,13.3920906 0.0417136685,13.0628206 L0.0739954867,12.987742 L6.37561005,0.386964291 C6.44335944,0.251491855 6.55327377,0.141650621 6.68883635,0.0739462793 C7.00995259,-0.0864295622 7.3954158,0.0229525532 7.58721889,0.316093526 Z M7.001768,2.2644837 L1.83253888,12.600931 L12.1709971,12.600931 L7.001768,2.2644837 Z M7.001768,10.5023275 C7.38836733,10.5023275 7.701768,10.8155198 7.701768,11.201862 C7.701768,11.5882043 7.38836733,11.9013965 7.001768,11.9013965 C6.61516868,11.9013965 6.301768,11.5882043 6.301768,11.201862 C6.301768,10.8155198 6.61516868,10.5023275 7.001768,10.5023275 Z M7.001768,4.90605156 C7.38836733,4.90605156 7.701768,5.21924382 7.701768,5.60558605 L7.701768,9.10325853 C7.701768,9.48960076 7.38836733,9.80279303 7.001768,9.80279303 C6.61516868,9.80279303 6.301768,9.48960076 6.301768,9.10325853 L6.301768,5.60558605 C6.301768,5.21924382 6.61516868,4.90605156 7.001768,4.90605156 Z" id="color🎨"></path>
                </g>
            </g>
        </g>
    </g>
</svg>