<svg width="154" height="154" viewBox="0 0 154 154" fill="none" xmlns="http://www.w3.org/2000/svg">
<path fill-rule="evenodd" clip-rule="evenodd" d="M45.9137 69.0284C36.5349 71.4944 28.2847 64.0409 22.6915 61.9466C17.0982 59.8523 1.66912 61.0717 0.0747576 78.8522C-1.40804 95.4035 19.6457 105.123 20.7689 111.446C21.5531 115.862 16.3931 115.596 15.5569 121.573C15.4085 122.636 15.6013 123.634 15.9848 124.541C34.6546 132.189 66.2623 137.369 108.865 116.651C110.588 105.214 113.751 87.6338 117.991 78.4718C124.795 63.7681 113.757 33.6956 87.8566 37.0691C55.3325 41.3066 61.8508 64.8408 45.9137 69.0284Z" fill="#E6F1FF"/>
<path fill-rule="evenodd" clip-rule="evenodd" d="M60.9085 79.9427C50.947 86.0735 31.7497 91.0088 26.8442 80.0003C23.0186 71.4143 31.4724 55.2956 41.2887 49.7114L34.8479 43.1004L30.7626 38.6747C30.7626 38.6747 8.87733 61.4133 11.4822 80.7045C14.372 102.099 36.4515 105.149 41.4599 104.769C41.4599 104.769 58.3079 91.3663 58.7639 90.9088C59.2177 90.4523 65.4543 82.5674 60.9085 79.9427Z" fill="#FECC6C"/>
<path fill-rule="evenodd" clip-rule="evenodd" d="M41.3214 49.5696C38.772 49.5696 36.1826 48.0236 34.1411 45.1557C32.783 43.2501 31.6377 39.872 32.3294 36.9644C32.7624 35.1452 33.8497 33.7124 35.4751 32.8203C39.6186 30.5491 43.1972 32.7853 44.5941 34.8439C45.2363 35.7921 44.9617 37.0637 43.9797 37.6849C42.9964 38.3061 41.6806 38.0387 41.0372 37.0917C40.6417 36.544 39.4843 35.3378 37.5759 36.3887C36.9893 36.711 36.6386 37.1863 36.4729 37.8834C36.104 39.4317 36.7789 41.6153 37.6448 42.8309C38.2156 43.6342 40.2329 46.174 42.1922 45.2597C43.5673 44.6104 43.6036 43.8059 43.502 43.3855C43.1621 42.3007 43.8067 41.1833 44.9291 40.8563C46.0502 40.5247 47.2475 41.1693 47.5886 42.254C48.0615 43.7697 47.9345 47.1186 44.0571 48.9472C43.1682 49.3653 42.2478 49.5696 41.3214 49.5696" fill="#FECC6C"/>
<path fill-rule="evenodd" clip-rule="evenodd" d="M53.5022 83.3929C47.9187 85.5949 41.5315 86.9849 36.2816 86.3067C33.9096 88.4304 29.1958 94.0841 31.6079 103.306C35.9339 104.618 39.7205 104.9 41.4568 104.769C41.4568 104.769 47.5288 99.9377 52.4819 95.9773L53.5022 83.3929Z" fill="#003CE5"/>
<path fill-rule="evenodd" clip-rule="evenodd" d="M16.7667 93.6494C24.4439 103.418 37.7154 105.052 41.4576 104.768C41.4576 104.768 43.1668 103.408 45.5085 101.543C45.802 99.8606 46.0111 98.5999 46.0111 98.5999C29.5888 105.221 17.0635 93.92 16.7667 93.6494" fill="#FEA231"/>
<path fill-rule="evenodd" clip-rule="evenodd" d="M42.0896 104.265C42.2369 104.149 42.4069 104.013 42.5986 103.861C42.8467 103.662 43.1337 103.434 43.4478 103.185C43.489 103.152 43.5291 103.12 43.5702 103.087C43.7673 102.929 43.9753 102.764 44.1919 102.591C44.2244 102.568 44.2547 102.541 44.2862 102.516C44.3414 102.473 44.3988 102.428 44.454 102.384C44.7367 102.158 45.0346 101.921 45.3433 101.674C45.3985 101.631 45.4516 101.588 45.5079 101.544C45.8014 99.8613 46.0105 98.6006 46.0105 98.6006C40.4736 100.834 35.3829 101.025 31.0515 100.292C31.1543 101.251 31.3331 102.252 31.6082 103.304C31.7696 103.353 31.9277 103.4 32.088 103.446C32.1844 103.473 32.2819 103.503 32.3794 103.53C32.5689 103.584 32.7563 103.633 32.9437 103.683C33.1202 103.728 33.2957 103.774 33.4701 103.816C33.6423 103.86 33.8145 103.902 33.9846 103.942C34.1362 103.977 34.2857 104.01 34.4362 104.042C34.5434 104.065 34.6539 104.091 34.7601 104.113C34.9106 104.146 35.0579 104.174 35.2052 104.202C35.3092 104.223 35.4143 104.245 35.5172 104.264C35.6612 104.29 35.8031 104.316 35.945 104.34C36.0457 104.359 36.1476 104.377 36.2461 104.393C36.3848 104.416 36.5202 104.437 36.6555 104.459C36.7541 104.473 36.8527 104.489 36.9502 104.503C37.0812 104.522 37.2101 104.539 37.3379 104.556C37.4343 104.568 37.5296 104.581 37.6239 104.593C37.7462 104.609 37.8676 104.623 37.9856 104.636C38.0809 104.647 38.1741 104.656 38.2672 104.666C38.3799 104.678 38.4925 104.689 38.603 104.699C38.694 104.707 38.785 104.715 38.8738 104.722C38.9778 104.73 39.0817 104.739 39.1814 104.746C39.2713 104.751 39.3601 104.756 39.4478 104.762C39.5399 104.767 39.6331 104.773 39.7219 104.777C39.8118 104.781 39.8995 104.785 39.9861 104.786C40.0652 104.789 40.1454 104.792 40.2223 104.793C40.3122 104.796 40.3977 104.796 40.4844 104.797C40.5494 104.797 40.6176 104.798 40.6793 104.798C40.7757 104.797 40.8656 104.794 40.9545 104.792C41 104.791 41.0487 104.79 41.092 104.789C41.222 104.785 41.3444 104.778 41.457 104.769C41.457 104.769 41.5675 104.681 41.7636 104.525C41.8535 104.453 41.9639 104.366 42.0896 104.265" fill="#002199"/>
<path fill-rule="evenodd" clip-rule="evenodd" d="M91.6263 75.5624C87.7108 76.083 79.6274 78.9131 77.1297 79.1881C75.1866 79.4022 74.8703 78.3925 74.8703 78.3925L66.8054 75.0712L60.9067 79.9434C59.1055 81.1922 55.073 82.7507 52.3099 83.8484C46.0116 86.8491 42.0311 103.995 39.7035 113.349C37.417 122.546 34.4319 127.127 32.1302 129.403C44.7172 131.933 60.4832 132.36 79.1747 127.671C83.4552 119.395 85.6063 108.003 85.6063 108.003L100.664 83.7245C96.7884 77.0872 96.2404 74.9494 91.6263 75.5624" fill="#F4F9FF"/>
<path fill-rule="evenodd" clip-rule="evenodd" d="M77.1302 79.1874C75.1871 79.4015 74.8708 78.3919 74.8708 78.3919L70.8643 76.741C67.5434 77.4007 64.3872 78.2028 61.5321 79.2005L60.9061 79.9428C60.6407 80.158 58.0217 83.4945 56.9083 85.7703C55.9681 87.6864 54.9825 91.1132 58.5167 92.1218C58.5167 92.1218 54.2893 96.0974 57.6285 102.475C57.6285 102.475 66.3574 99.3133 65.1443 92.6695C65.1443 92.6695 71.1849 93.8933 74.2588 87.2299C75.7622 83.9673 76.8767 80.8361 78.2469 78.9972C77.8537 79.082 77.48 79.1494 77.1302 79.1874" fill="#003CE5"/>
<path fill-rule="evenodd" clip-rule="evenodd" d="M63.0261 56.7907C63.0261 56.7907 58.0925 49.6188 62.4726 44.9802C63.9955 43.3673 65.8163 43.8129 66.5701 44.4215C66.5701 44.4215 66.8636 39.4243 70.5419 38.2625C74.7228 36.942 76.2045 39.7156 76.7406 41.6295C77.4934 44.3194 77.1414 46.1822 79.7225 47.0756C82.3025 47.9679 84.2001 48.1896 83.9423 52.0532C83.9423 52.0532 85.7013 52.0456 86.2732 53.9063C87.365 57.4537 85.8844 59.7197 84.2532 62.0477C81.5616 65.8886 76.5782 68.886 75.1355 72.3726L63.0261 56.7907Z" fill="#FD5C00"/>
<path fill-rule="evenodd" clip-rule="evenodd" d="M60.8752 80.1226C61.5153 76.4784 60.8016 75.5916 59.7087 74.4961C56.8687 72.1159 59.5495 64.7266 60.4604 62.0475C61.3713 59.3685 63.3198 53.2909 63.3198 53.2909C65.2716 48.7208 70.736 49.4794 73.0484 49.9403C75.3609 50.4 78.4532 51.377 79.0533 55.6896C79.1573 56.4373 79.1952 57.1916 78.8713 57.8741C78.4402 58.787 77.5445 60.4879 77.6236 62.2845C77.6344 62.517 77.9312 62.6116 78.0752 62.429L79.6512 60.3488C79.6512 60.3488 80.5794 59.0609 81.3506 59.8945C81.9582 60.5499 81.0343 61.6106 81.0343 61.6106C81.0343 61.6106 78.9406 64.6233 77.9994 66.3503C76.1689 69.7075 75.2786 70.1129 74.8811 74.1972C74.8811 74.1972 74.2886 77.6848 74.8703 78.3913C74.8703 78.3913 66.7598 90.9604 62.4078 91.1126C58.9808 89.1704 60.8752 80.1226 60.8752 80.1226" fill="#FECC6C"/>
<path fill-rule="evenodd" clip-rule="evenodd" d="M63.3188 78.9555C68.5394 79.5902 71.9621 72.0759 70.4956 72.8366C69.0279 73.5985 66.1685 75.0712 63.3188 75.0712C59.3567 75.0712 58.5769 72.5291 58.7426 73.0181C58.944 73.6116 59.2365 74.1093 59.7141 74.6256C60.5774 75.5407 61.0713 76.7318 61.1135 77.6198C61.55 78.3816 62.2476 78.8261 63.3188 78.9555" fill="#FEA231"/>
<path fill-rule="evenodd" clip-rule="evenodd" d="M88.663 76.1587C86.7578 77.6499 79.9493 88.6388 85.7938 97.1302L102.322 85.1218C102.322 85.1218 100.411 72.2646 88.663 76.1587" fill="#003CE5"/>
<path fill-rule="evenodd" clip-rule="evenodd" d="M75.9963 103.398H69.2191C68.5671 103.398 68.0364 102.868 68.0364 102.212V102.038C68.0364 101.383 68.5671 100.851 69.2191 100.851H75.9963C76.6494 100.851 77.1779 101.383 77.1779 102.038V102.212C77.1779 102.868 76.6494 103.398 75.9963 103.398" fill="#003CE5"/>
<path fill-rule="evenodd" clip-rule="evenodd" d="M64.5794 64.405C64.4527 64.405 64.339 64.3919 64.2404 64.3648C64.1061 64.3278 64.0064 64.2267 63.9696 64.0952C63.9317 63.9626 63.9674 63.8214 64.0617 63.7181C65.2098 62.4856 65.9322 60.5859 66.1889 59.8273C66.2269 59.7197 66.3417 59.6653 66.4489 59.699C66.555 59.736 66.6124 59.8523 66.5767 59.9588C66.2463 60.9337 65.5185 62.753 64.3606 63.9985C64.6379 64.0496 65.1686 63.9518 65.9257 63.6812C66.0362 63.6442 66.1489 63.6996 66.1868 63.8051C66.2247 63.9127 66.1694 64.0289 66.0633 64.067C65.4253 64.2941 64.9423 64.405 64.5794 64.405" fill="#002199"/>
<path fill-rule="evenodd" clip-rule="evenodd" d="M73.6896 57.7082C70.8908 57.7082 69.9658 56.2823 69.8597 56.1041C69.6312 55.715 69.76 55.2129 70.1478 54.9825C70.5301 54.7586 71.0208 54.8803 71.2548 55.2531C71.3057 55.3259 72.0292 56.2823 74.4987 56.0258C74.945 55.9813 75.3479 56.3051 75.3956 56.754C75.4432 57.2029 75.1183 57.6061 74.6699 57.6539C74.32 57.6909 73.9929 57.7082 73.6896 57.7082" fill="#002199"/>
<path fill-rule="evenodd" clip-rule="evenodd" d="M72.1927 61.4445C72.0963 61.4445 72.0021 61.3924 71.9533 61.3011C71.6793 60.7913 71.3132 60.4925 70.893 60.437C70.4716 60.3827 70.0774 60.574 69.8867 60.7772C69.7828 60.887 69.6106 60.8924 69.5033 60.7881C69.3928 60.6859 69.3885 60.5131 69.4914 60.4033C69.7828 60.0925 70.3492 59.8175 70.9634 59.8958C71.3825 59.9512 71.9772 60.1958 72.4321 61.0424C72.5036 61.175 72.4537 61.3402 72.3216 61.4119C72.2804 61.4337 72.236 61.4445 72.1927 61.4445" fill="#002199"/>
<path fill-rule="evenodd" clip-rule="evenodd" d="M65.9392 56.0045C65.7713 56.0045 65.6012 55.9524 65.4561 55.8459C65.3857 55.7948 63.9765 54.8036 62.419 55.8285C62.0432 56.0752 61.5374 55.9719 61.2893 55.5926C61.0424 55.2144 61.1474 54.7079 61.5244 54.4591C64.0534 52.7929 66.3323 54.4591 66.4287 54.5308C66.7894 54.8014 66.8641 55.3133 66.5934 55.6763C66.4331 55.8915 66.1872 56.0045 65.9392 56.0045" fill="#002199"/>
<path fill-rule="evenodd" clip-rule="evenodd" d="M64.1608 58.8435C64.1608 59.3098 63.7837 59.6858 63.3211 59.6858C62.8564 59.6858 62.4794 59.3098 62.4794 58.8435C62.4794 58.3784 62.8564 58.0012 63.3211 58.0012C63.7837 58.0012 64.1608 58.3784 64.1608 58.8435" fill="#002199"/>
<path fill-rule="evenodd" clip-rule="evenodd" d="M66.7762 67.1048C66.6462 67.1048 66.5119 67.0993 66.3711 67.0884C66.2584 67.0819 66.174 66.983 66.1826 66.87C66.1902 66.757 66.2942 66.6602 66.4003 66.6809C68.7864 66.8526 69.4742 65.3104 69.5035 65.2452C69.5468 65.1398 69.6681 65.093 69.7699 65.1354C69.8728 65.1789 69.9226 65.2985 69.8793 65.4028C69.8501 65.4756 69.1493 67.1048 66.7762 67.1048" fill="#002199"/>
<path fill-rule="evenodd" clip-rule="evenodd" d="M60.8101 130.828C66.5734 130.308 72.6996 129.297 79.1767 127.672C83.4572 119.395 85.6093 108.003 85.6093 108.003L88.1709 103.873L86.0231 100.853C86.0231 100.853 81.1512 121.819 60.8101 130.828" fill="#C7E1FA"/>
<path fill-rule="evenodd" clip-rule="evenodd" d="M137.345 71.8189C137.052 71.8189 136.815 71.5809 136.815 71.2874C136.814 71.1048 136.746 69.4757 135.009 69.4757C134.717 69.4757 134.479 69.2377 134.479 68.9431C134.479 68.6508 134.717 68.4128 135.009 68.4128C136.744 68.4128 136.814 66.7869 136.815 66.5989C136.816 66.3065 137.052 66.0696 137.345 66.0696C137.633 66.0696 137.868 66.3022 137.874 66.5913V66.5923V66.5934V66.5945V66.5956V66.5967V66.5978V66.5989C137.876 66.7869 137.944 68.4128 139.679 68.4128C139.972 68.4128 140.209 68.6508 140.209 68.9431C140.209 69.2377 139.972 69.4757 139.679 69.4757C137.925 69.4757 137.874 71.1027 137.874 71.2874C137.874 71.5809 137.637 71.8189 137.345 71.8189V71.8189Z" fill="white"/>
<path fill-rule="evenodd" clip-rule="evenodd" d="M147.801 109.811C147.801 109.811 147.801 114.88 142.75 114.88C147.801 114.88 147.801 119.95 147.801 119.95C147.801 119.95 147.801 114.88 152.854 114.88C147.801 114.88 147.801 109.811 147.801 109.811" fill="#5E86FF"/>
<path fill-rule="evenodd" clip-rule="evenodd" d="M146.555 114.881C147.063 115.263 147.474 115.714 147.801 116.197C148.129 115.714 148.54 115.263 149.048 114.881C148.54 114.5 148.129 114.049 147.801 113.565C147.474 114.049 147.063 114.5 146.555 114.881V114.881Z" fill="#5E86FF"/>
<path fill-rule="evenodd" clip-rule="evenodd" d="M146.657 119.949C146.652 119.554 146.507 116.029 142.75 116.029C142.116 116.029 141.605 115.515 141.605 114.879C141.605 114.245 142.116 113.729 142.75 113.729C146.504 113.729 146.651 110.213 146.657 109.805C146.659 109.172 147.17 108.659 147.802 108.659C148.429 108.659 148.937 109.164 148.949 109.789V109.793V109.797V109.803C148.953 110.213 149.1 113.729 152.854 113.729C153.487 113.729 154 114.245 154 114.879C154 115.515 153.487 116.029 152.854 116.029C149.058 116.029 148.949 119.548 148.949 119.949C148.949 120.584 148.435 121.099 147.802 121.099C147.169 121.099 146.657 120.584 146.657 119.949Z" fill="#E6F1FF"/>
<path fill-rule="evenodd" clip-rule="evenodd" d="M128.707 122.405C128.707 122.405 128.707 125.28 125.841 125.28C128.707 125.28 128.707 128.156 128.707 128.156C128.707 128.156 128.707 125.28 131.573 125.28C128.707 125.28 128.707 122.405 128.707 122.405" fill="#5E86FF"/>
<path fill-rule="evenodd" clip-rule="evenodd" d="M128 125.281C128.288 125.498 128.521 125.753 128.706 126.028C128.893 125.753 129.126 125.498 129.414 125.281C129.126 125.065 128.893 124.81 128.706 124.535C128.521 124.81 128.288 125.065 128 125.281V125.281Z" fill="#5E86FF"/>
<path fill-rule="evenodd" clip-rule="evenodd" d="M128.707 128.809C128.348 128.809 128.057 128.517 128.057 128.156C128.055 127.932 127.974 125.933 125.842 125.933C125.483 125.933 125.191 125.641 125.191 125.28C125.191 124.92 125.483 124.628 125.842 124.628C127.972 124.628 128.055 122.634 128.057 122.402C128.059 122.043 128.348 121.753 128.707 121.753C129.063 121.753 129.351 122.038 129.358 122.393V122.394V122.395V122.396V122.397V122.398V122.399V122.4V122.401V122.402C129.36 122.634 129.444 124.628 131.573 124.628C131.933 124.628 132.224 124.92 132.224 125.28C132.224 125.641 131.933 125.933 131.573 125.933C129.42 125.933 129.358 127.929 129.358 128.156C129.358 128.517 129.065 128.809 128.707 128.809V128.809Z" fill="#E6F1FF"/>
<path fill-rule="evenodd" clip-rule="evenodd" d="M116.455 88.2538C115.32 88.2538 114.201 87.7278 113.483 86.7355C106.381 76.9149 110.416 63.5763 110.591 63.0122C111.194 61.0733 113.25 59.9854 115.186 60.5973C117.116 61.2015 118.194 63.26 117.597 65.1978C117.551 65.35 114.513 75.6259 119.421 82.411C120.611 84.0565 120.246 86.3584 118.606 87.5517C117.956 88.0256 117.201 88.2538 116.455 88.2538" fill="#FECC6C"/>
<path fill-rule="evenodd" clip-rule="evenodd" d="M122.183 87.2982C120.817 87.2982 119.505 86.5287 118.874 85.2104C113.615 74.2302 117.963 64.8856 118.149 64.4933C119.027 62.6587 121.219 61.8892 123.044 62.7663C124.864 63.6412 125.635 65.8268 124.776 67.6548C124.629 67.9776 121.817 74.3584 125.487 82.0227C126.364 83.854 125.596 86.0527 123.77 86.9341C123.257 87.1819 122.716 87.2982 122.183 87.2982" fill="#FECC6C"/>
<path fill-rule="evenodd" clip-rule="evenodd" d="M128.639 87.2958C127.309 87.2958 126.025 86.5676 125.374 85.2993C123.224 81.1117 122.606 76.0906 123.718 71.8726C124.238 69.9055 126.245 68.7393 128.203 69.2544C130.162 69.7761 131.329 71.79 130.812 73.755C130.169 76.1862 130.596 79.3935 131.897 81.929C132.824 83.7364 132.117 85.9557 130.316 86.8861C129.778 87.1643 129.203 87.2958 128.639 87.2958" fill="#FECC6C"/>
<path fill-rule="evenodd" clip-rule="evenodd" d="M103.435 116.484C103.297 116.55 103.163 116.601 103.034 116.642L102.967 116.668L102.965 116.663C102.222 116.877 101.636 116.724 101.4 116.637C101.4 116.637 98.0335 115.329 96.8431 118.381C95.6528 121.433 98.7884 122.621 98.7884 122.621C100.963 123.574 105.67 124.036 109.516 119.715C111.57 117.405 112.379 114.941 112.566 112.868L103.435 116.484Z" fill="#FECC6C"/>
<path fill-rule="evenodd" clip-rule="evenodd" d="M124.75 83.9585C124.633 83.9585 124.52 83.8944 124.461 83.7835C121.734 78.5765 123.243 72.4153 123.309 72.1556C123.353 71.9806 123.529 71.8784 123.705 71.9186C123.88 71.9632 123.986 72.1414 123.941 72.3164C123.926 72.3773 122.429 78.4994 125.04 83.4781C125.123 83.6379 125.061 83.8368 124.903 83.9205C124.854 83.9455 124.802 83.9585 124.75 83.9585" fill="#003CE5"/>
<path fill-rule="evenodd" clip-rule="evenodd" d="M118.6 85.7034C118.491 85.7034 118.385 85.648 118.323 85.548C114.689 79.6737 116.565 68.249 116.647 67.7653C116.677 67.5882 116.841 67.4676 117.023 67.498C117.201 67.5273 117.32 67.698 117.29 67.8762C117.27 67.9914 115.374 79.54 118.878 85.2024C118.973 85.3567 118.925 85.5578 118.773 85.6534C118.719 85.6871 118.66 85.7034 118.6 85.7034" fill="#003CE5"/>
<path fill-rule="evenodd" clip-rule="evenodd" d="M100.595 117.758H133.631C134.802 117.758 135.833 116.983 136.162 115.855L144.535 87.1485C145.028 85.4541 143.762 83.7598 142.003 83.7598H126.803C126.803 83.7598 137.023 87.3626 131.761 99.5481C127.564 109.268 110.816 115.66 100.595 117.758" fill="#003CE5"/>
<path fill-rule="evenodd" clip-rule="evenodd" d="M131.605 117.759H81.034C79.2685 117.759 77.9969 116.057 78.493 114.356L86.898 85.5413C87.2273 84.4088 88.2628 83.6317 89.438 83.6317H140.011C141.777 83.6317 143.046 85.3326 142.55 87.0335L134.146 115.849C133.816 116.981 132.781 117.759 131.605 117.759" fill="#0B7EFF"/>
<path fill-rule="evenodd" clip-rule="evenodd" d="M103.37 117.759H131.603C132.78 117.759 133.814 116.981 134.144 115.849L142.549 87.0335C143.045 85.3326 141.775 83.6317 140.009 83.6317H124.75C124.75 83.6317 135.01 87.2487 129.727 99.4809C125.514 109.236 113.629 115.654 103.37 117.759" fill="#FF9700"/>
<path fill-rule="evenodd" clip-rule="evenodd" d="M96.1968 100.26H87.9791C87.6802 100.26 87.4636 99.972 87.5448 99.684L88.4438 96.4974C88.499 96.3018 88.6767 96.167 88.8781 96.167H97.0958C97.3947 96.167 97.6124 96.455 97.5301 96.7452L96.6311 99.9307C96.5769 100.125 96.3993 100.26 96.1968 100.26" fill="#27B7FF"/>
<path fill-rule="evenodd" clip-rule="evenodd" d="M98.6949 91.4264H90.4773C90.1784 91.4264 89.9617 91.1384 90.043 90.8493L90.721 88.3551C90.7752 88.1594 90.9539 88.0247 91.1553 88.0247H99.373C99.673 88.0247 99.8907 88.3127 99.8073 88.6007L99.1293 91.096C99.0751 91.2917 98.8975 91.4264 98.6949 91.4264" fill="#27B7FF"/>
<path fill-rule="evenodd" clip-rule="evenodd" d="M108.229 100.26H100.012C99.7127 100.26 99.496 99.972 99.5773 99.684L100.476 96.4974C100.532 96.3018 100.709 96.167 100.911 96.167H109.128C109.428 96.167 109.645 96.455 109.563 96.7452L108.664 99.9307C108.609 100.125 108.432 100.26 108.229 100.26" fill="#27B7FF"/>
<path fill-rule="evenodd" clip-rule="evenodd" d="M120.262 100.26H112.046C111.746 100.26 111.529 99.972 111.611 99.684L112.509 96.4974C112.566 96.3018 112.742 96.167 112.945 96.167H121.161C121.461 96.167 121.679 96.455 121.597 96.7452L120.698 99.9307C120.643 100.125 120.465 100.26 120.262 100.26" fill="#27B7FF"/>
<path fill-rule="evenodd" clip-rule="evenodd" d="M132.297 100.26H124.079C123.779 100.26 123.564 99.972 123.645 99.684L124.544 96.4974C124.599 96.3018 124.777 96.167 124.978 96.167H133.196C133.495 96.167 133.713 96.455 133.63 96.7452L132.731 99.9307C132.677 100.125 132.499 100.26 132.297 100.26" fill="#27B7FF"/>
<path fill-rule="evenodd" clip-rule="evenodd" d="M125.679 113.676H113.739C113.316 113.676 113.011 113.271 113.126 112.863L114.392 108.376C114.47 108.101 114.72 107.911 115.005 107.911H126.945C127.369 107.911 127.673 108.316 127.557 108.723L126.291 113.211C126.214 113.486 125.965 113.676 125.679 113.676" fill="white"/>
<path fill-rule="evenodd" clip-rule="evenodd" d="M99.0403 87.0734C97.108 87.0734 95.5418 85.5018 95.5418 83.5629C95.5418 77.8157 100.083 74.8096 104.569 74.8096C109.47 74.8096 112.379 78.6537 113.325 80.9252L113.816 83.6325L106.889 83.6781C106.855 83.6031 106.036 81.8305 104.569 81.8305C103.91 81.8305 102.538 81.8305 102.538 83.5629C102.538 85.5018 100.972 87.0734 99.0403 87.0734" fill="#FECC6C"/>
<path fill-rule="evenodd" clip-rule="evenodd" d="M110.913 83.8012C110.778 83.8012 110.651 83.7164 110.605 83.5816C109.295 79.8223 109.291 76.9748 109.291 76.8552C109.292 76.6748 109.438 76.5303 109.618 76.5303H109.619C109.799 76.5303 109.944 76.677 109.944 76.8574C109.943 76.8868 109.949 79.7201 111.22 83.3653C111.28 83.536 111.191 83.7229 111.021 83.7816C110.984 83.7946 110.948 83.8012 110.913 83.8012" fill="#003CE5"/>
<path fill-rule="evenodd" clip-rule="evenodd" d="M34.1763 37.544C34.1687 37.544 34.16 37.5429 34.1524 37.5407C34.0777 37.5277 34.0289 37.4571 34.043 37.3832C34.3214 35.842 35.109 34.289 35.1437 34.2227C35.1762 34.1564 35.2596 34.1281 35.3268 34.1651C35.3929 34.1988 35.4189 34.2814 35.3842 34.3487C35.3766 34.3629 34.5814 35.9312 34.3095 37.431C34.2976 37.4973 34.2413 37.544 34.1763 37.544" fill="#003CE5"/>
<rect x="47.587" y="28.0096" width="5.19354" height="27.7649" rx="2.59677" transform="rotate(35.5543 47.587 28.0096)" fill="#003CE5"/>
<circle cx="55.6647" cy="20.5792" r="13.5032" transform="rotate(25.4114 55.6647 20.5792)" fill="#003CE5"/>
<circle cx="55.4735" cy="20.3878" r="11.0212" transform="rotate(25.4114 55.4735 20.3878)" fill="#E6F1FF"/>
<path fill-rule="evenodd" clip-rule="evenodd" d="M38.0295 27.0494L38.217 27.0016L38.2842 26.9878C38.4434 26.956 38.6285 26.9287 38.8328 26.9094C39.4137 26.8545 40.052 26.8714 40.7275 26.9895C42.6813 27.331 44.4984 28.4313 45.9103 30.426C46.6093 31.4137 46.3754 32.7811 45.3877 33.4801C44.4291 34.1586 43.1127 33.9582 42.397 33.0427L42.3336 32.9575C41.6086 31.9332 40.8161 31.4534 39.9731 31.306C39.7029 31.2588 39.4535 31.2522 39.2449 31.2719L39.1564 31.282L39.0017 31.3131L38.9661 31.3187L38.811 31.3354L38.6459 31.3406L38.3965 31.3261L37.7401 31.1422L36.6999 28.1557L37.4867 27.2949L37.6417 27.2061L37.7391 27.1585L37.9133 27.0872L38.0295 27.0494Z" fill="#FECC6C"/>
<path fill-rule="evenodd" clip-rule="evenodd" d="M39.44 30.6465C42.1341 31.9857 44.2698 34.0499 45.2913 37.0046C45.6867 38.1482 45.0802 39.3958 43.9365 39.7912C42.8276 40.1746 41.6208 39.6159 41.1882 38.5389L41.1499 38.4364C40.5526 36.7088 39.2409 35.441 37.4894 34.5703C37.033 34.3434 36.5851 34.1643 36.1698 34.0296C36.0997 34.0068 36.0337 33.9864 35.9721 33.9682L35.7236 33.9004C34.5406 33.6462 33.7876 32.4811 34.0418 31.298C34.296 30.115 35.4611 29.362 36.6441 29.6162L36.8737 29.6709L37.063 29.722L37.2796 29.7854L37.522 29.8615C38.1337 30.0599 38.7803 30.3185 39.44 30.6465Z" fill="#FECC6C"/>
<path fill-rule="evenodd" clip-rule="evenodd" d="M42.9216 39.06C43.6266 40.0435 43.4008 41.4122 42.4174 42.1172C41.4339 42.8222 40.0651 42.5964 39.3602 41.613C38.1344 39.9029 36.858 38.805 35.6061 38.1742C35.1483 37.9436 34.7359 37.7978 34.3814 37.7176C34.3276 37.7054 34.2787 37.6956 34.235 37.6878L34.1151 37.6693L34.15 37.6701C32.9403 37.6414 31.983 36.6374 32.0117 35.4278C32.0404 34.2181 33.0444 33.2607 34.2541 33.2894C34.5167 33.2957 34.8873 33.3393 35.3488 33.4438C36.0447 33.6013 36.7944 33.8662 37.5779 34.261C39.4652 35.212 41.2857 36.778 42.9216 39.06Z" fill="#FECC6C"/>
<path fill-rule="evenodd" clip-rule="evenodd" d="M39.5236 40.6464C40.4408 41.4357 40.5445 42.819 39.7552 43.7362C38.9659 44.6534 37.5826 44.7571 36.6654 43.9678C36.0295 43.4206 35.3916 42.9342 34.7579 42.5052C33.9451 41.9548 33.1845 41.5278 32.502 41.2102L32.3062 41.121L32.1371 41.0473L31.9959 40.9886L31.8381 40.9278L31.7704 40.9046C30.6165 40.5405 29.9761 39.3099 30.3402 38.1559C30.7043 37.0019 31.9349 36.3616 33.0889 36.7257L33.238 36.7754L33.4126 36.8387C33.4438 36.8504 33.476 36.8627 33.5093 36.8756L33.7207 36.9602C33.7579 36.9755 33.7961 36.9915 33.8353 37.008L34.0818 37.115L34.3508 37.2374C35.2399 37.6512 36.2038 38.1923 37.2147 38.8768C37.9863 39.3992 38.7582 39.9878 39.5236 40.6464Z" fill="#FECC6C"/>
<path fill-rule="evenodd" clip-rule="evenodd" d="M43.4449 33.3935C43.5076 33.4725 43.4944 33.5874 43.4154 33.6501C43.3365 33.7128 43.2216 33.6996 43.1589 33.6206C41.8482 31.9699 40.1834 30.8655 38.4783 30.2182C38.3841 30.1824 38.3367 30.0769 38.3724 29.9827C38.4082 29.8884 38.5137 29.841 38.6079 29.8768C40.3702 30.5458 42.0893 31.6862 43.4449 33.3935Z" fill="#003CE5"/>
<path fill-rule="evenodd" clip-rule="evenodd" d="M36.6751 32.9263C39.4304 34.4107 42.0239 36.9256 43.2836 39.5286C43.3276 39.6194 43.2896 39.7286 43.1988 39.7725C43.108 39.8164 42.9989 39.7784 42.9549 39.6877C41.7309 37.1586 39.1932 34.6977 36.5019 33.2478C36.4132 33.2 36.38 33.0893 36.4278 33.0005C36.4756 32.9117 36.5864 32.8785 36.6751 32.9263Z" fill="#003CE5"/>
<path fill-rule="evenodd" clip-rule="evenodd" d="M35.2019 36.3733C36.9595 37.7107 39.2227 40.0049 40.2866 41.8832C40.3363 41.971 40.3055 42.0824 40.2177 42.1321C40.13 42.1818 40.0186 42.151 39.9689 42.0632C38.9339 40.2359 36.7025 37.974 34.9808 36.6639C34.9006 36.6029 34.885 36.4883 34.9461 36.4081C35.0071 36.3278 35.1217 36.3123 35.2019 36.3733Z" fill="#003CE5"/>
<path fill-rule="evenodd" clip-rule="evenodd" d="M66.1661 20.2903C65.7475 20.2903 65.4092 19.9521 65.4092 19.535C65.4077 19.2756 65.3119 16.9603 62.8345 16.9603C62.4175 16.9603 62.0792 16.6221 62.0792 16.2035C62.0792 15.788 62.4175 15.4498 62.8345 15.4498C65.3088 15.4498 65.4077 13.1391 65.4092 12.8719C65.4108 12.4565 65.7475 12.1198 66.1661 12.1198C66.5769 12.1198 66.9121 12.4503 66.9198 12.8611V12.8627V12.8642V12.8658V12.8673V12.8688V12.8704V12.8719C66.9229 13.1391 67.0202 15.4498 69.4945 15.4498C69.9115 15.4498 70.2498 15.788 70.2498 16.2035C70.2498 16.6221 69.9115 16.9603 69.4945 16.9603C66.9924 16.9603 66.9198 19.2725 66.9198 19.535C66.9198 19.9521 66.5815 20.2903 66.1661 20.2903V20.2903Z" fill="#B3D6FF"/>
<path fill-rule="evenodd" clip-rule="evenodd" d="M62.083 21.6526C61.9435 21.6526 61.8307 21.5399 61.8307 21.4008C61.8302 21.3143 61.7983 20.5426 60.9725 20.5426C60.8335 20.5426 60.7207 20.4298 60.7207 20.2903C60.7207 20.1518 60.8335 20.0391 60.9725 20.0391C61.7972 20.0391 61.8302 19.2689 61.8307 19.1798C61.8312 19.0413 61.9435 18.9291 62.083 18.9291C62.2199 18.9291 62.3316 19.0393 62.3342 19.1762V19.1767V19.1772V19.1777V19.1783V19.1788V19.1793V19.1798C62.3353 19.2689 62.3677 20.0391 63.1925 20.0391C63.3315 20.0391 63.4442 20.1518 63.4442 20.2903C63.4442 20.4298 63.3315 20.5426 63.1925 20.5426C62.3584 20.5426 62.3342 21.3133 62.3342 21.4008C62.3342 21.5399 62.2215 21.6526 62.083 21.6526V21.6526Z" fill="#B3D6FF"/>
</svg>
