<?xml version="1.0" encoding="UTF-8"?>
<svg width="52px" height="46px" viewBox="0 0 52 46" version="1.1" xmlns="http://www.w3.org/2000/svg" xmlns:xlink="http://www.w3.org/1999/xlink">
    <title>spots</title>
    <g id="Landing" stroke="none" stroke-width="1" fill="none" fill-rule="evenodd">
        <g id="1.1.1.0.0.BS_landingViaBCP_STP_desktop" transform="translate(-980.000000, -672.000000)">
            <g id="spots" transform="translate(980.800000, 672.600000)">
                <path d="M2.8,0 L47.6,0 C49.1463973,0 50.4,1.2536027 50.4,2.8 L50.4,40.6 L0,40.6 L0,2.8 C0,1.2536027 1.2536027,0 2.8,0 Z" id="Rectangle" fill="#8FBAFC"></path>
                <path d="M5.6,4.2 L33.6,4.2 C34.3731986,4.2 35,4.82680135 35,5.6 L35,25.2 C35,25.9731986 34.3731986,26.6 33.6,26.6 L5.6,26.6 C4.82680135,26.6 4.2,25.9731986 4.2,25.2 L4.2,5.6 C4.2,4.82680135 4.82680135,4.2 5.6,4.2 Z" id="Rectangle" fill="#D0E5FF"></path>
                <path d="M44.8,21 C45.5731986,21 46.2,21.6268014 46.2,22.4 L46.2,25.2 C46.2,25.9731986 45.5731986,26.6 44.8,26.6 L40.6,26.6 C39.8268014,26.6 39.2,25.9731986 39.2,25.2 L39.2,22.4 C39.2,21.6268014 39.8268014,21 40.6,21 L44.8,21 Z M44.8,12.6 C45.5731986,12.6 46.2,13.2268014 46.2,14 L46.2,16.8 C46.2,17.5731986 45.5731986,18.2 44.8,18.2 L40.6,18.2 C39.8268014,18.2 39.2,17.5731986 39.2,16.8 L39.2,14 C39.2,13.2268014 39.8268014,12.6 40.6,12.6 L44.8,12.6 Z M44.8,4.2 C45.5731986,4.2 46.2,4.82680135 46.2,5.6 L46.2,8.4 C46.2,9.17319865 45.5731986,9.8 44.8,9.8 L40.6,9.8 C39.8268014,9.8 39.2,9.17319865 39.2,8.4 L39.2,5.6 C39.2,4.82680135 39.8268014,4.2 40.6,4.2 L44.8,4.2 Z" id="Shape" fill="#FF9333"></path>
                <path d="M14,30.8 L36.4,30.8 C37.1731986,30.8 37.8,31.4268014 37.8,32.2 L37.8,33.6 C37.8,34.3731986 37.1731986,35 36.4,35 L14,35 C13.2268014,35 12.6,34.3731986 12.6,33.6 L12.6,32.2 C12.6,31.4268014 13.2268014,30.8 14,30.8 Z" id="Rectangle" fill="#3262C4"></path>
                <path d="M18.2,32.2 L32.2,32.2 L32.2,42 C32.2,43.5463973 30.9463973,44.8 29.4,44.8 L21,44.8 C19.4536027,44.8 18.2,43.5463973 18.2,42 L18.2,32.2 Z" id="Mask" fill="#5B90E9"></path>
                <path d="M25.2,36.4 C27.5195959,36.4 29.4,34.5195959 29.4,32.2 L21,32.2 L21,32.2 C21,34.5195959 22.8804041,36.4 25.2,36.4 Z" id="Oval-Copy" fill="#D0E5FF"></path>
            </g>
        </g>
    </g>
</svg>