<svg width="154" height="154" viewBox="0 0 154 154" fill="none" xmlns="http://www.w3.org/2000/svg">
<path fill-rule="evenodd" clip-rule="evenodd" d="M51.637 93.1307C51.637 93.1307 42.2845 96.7998 44.066 109.976C45.8474 123.152 62.376 131.378 75.9902 132.715C94.8668 134.568 112.206 126.933 121.67 117.037C131.134 107.141 132.693 95.0693 131.302 84.2599C129.909 73.45 119.56 70.1141 114.826 69.169C110.091 68.2238 83.0349 84.2599 83.0349 84.2599L52.1224 93.0195" fill="#FFC74A"/>
<path fill-rule="evenodd" clip-rule="evenodd" d="M58.7629 92.1937C58.7629 92.1937 52.4854 99.58 65.7561 107.03C79.027 114.479 101.113 110.625 112.095 99.6116C123.077 88.598 124.565 77.7555 115.658 72.6565C105.505 77.2303 58.7629 92.1937 58.7629 92.1937" fill="#FFA900"/>
<path fill-rule="evenodd" clip-rule="evenodd" d="M87.5224 79.5071L87.7573 79.598L88.4926 79.894L89.0075 80.1111L89.541 80.3448L90.0924 80.5954L90.3745 80.7272V80.7272L90.951 81.0042L91.5432 81.2994C91.7431 81.4009 91.9455 81.5055 92.1502 81.6133L92.7711 81.9464C95.0102 83.1699 97.499 84.7697 100.061 86.8477L100.13 86.8398L100.783 86.75L101.723 86.6102V86.6102L102.321 86.5123C102.517 86.4789 102.709 86.4446 102.897 86.4094L103.449 86.3007L103.976 86.1851C104.664 86.0261 105.285 85.8464 105.833 85.636L106.035 85.5556C108.26 84.6389 108.911 85.9987 108.795 88.2088L108.773 88.5302C108.769 88.5846 108.764 88.6395 108.759 88.6949L108.712 89.1176L108.651 89.5544L108.577 90.0035C108.55 90.155 108.521 90.3083 108.491 90.4631L108.394 90.9314L108.287 91.4065L108.171 91.8868L108.047 92.3703L107.916 92.8553L107.709 93.5816L107.565 94.0624L107.343 94.7739L107.118 95.4684L106.816 96.3574L106.522 97.1909L106.311 97.771L105.87 98.9373L105.441 100.021L105.34 100.264L105.11 100.24L104.707 100.209L104.278 100.189L103.744 100.175L103.091 100.175L102.578 100.186L102.014 100.208L101.612 100.23L100.969 100.275L100.514 100.314L100.039 100.361L99.5436 100.416L99.0283 100.48L98.4933 100.554L97.9391 100.638L97.0721 100.784V100.784L96.4708 100.896L95.8511 101.019L95.5345 101.086V101.086L94.8879 101.229L93.885 101.469V101.469L93.1949 101.647L92.4879 101.84C92.3686 101.874 92.2487 101.908 92.1281 101.943L91.3963 102.159C91.2729 102.197 91.1489 102.235 91.0242 102.274L90.2682 102.515C88.7403 103.015 87.1178 103.618 85.411 104.346L84.5506 104.72C83.2496 105.297 81.9022 105.946 80.5126 106.675C75.3386 109.39 70.3856 114.508 66.0779 120.091L65.3851 121.001V121.001L64.704 121.916V121.916L64.035 122.836V122.836L63.3786 123.759C63.2702 123.913 63.1624 124.067 63.0552 124.221L62.4042 125.165L61.7675 126.107L61.4545 126.576V126.576L60.5381 127.976V127.976L59.9463 128.9L59.3704 129.814L58.7064 130.886L58.3548 131.461L57.696 132.554L57.0303 133.678L56.3788 134.796L56.1056 135.27L55.5794 136.192L54.7273 137.71L54.1131 138.822L53.2841 140.344L51.9805 142.753L51.7504 143.166L51.5843 143.45L51.4981 143.586L51.469 143.629C50.8478 144.501 50.0931 144.748 49.4937 144.778L49.3896 144.781C49.2076 144.783 49.0426 144.766 48.9034 144.742L48.7152 144.703L48.5724 144.663L48.2312 144.532L28.3066 136.488C27.9002 136.321 27.5855 135.754 27.7357 135.255L27.765 135.172C27.7763 135.145 27.7891 135.118 27.8034 135.092C27.9325 134.852 28.1882 134.643 28.6172 134.522C28.9022 134.441 29.1879 134.372 29.5548 134.315L29.7929 134.281L30.0644 134.249L30.5316 134.207L31.0846 134.173L31.5087 134.154L31.9826 134.139L32.7968 134.122V134.122C33.5327 134.111 34.1864 133.997 34.7619 133.82L34.974 133.751C36.1835 133.335 37.0254 132.646 37.5418 132.105C37.6634 131.977 37.7669 131.858 37.853 131.752L37.9914 131.575L38.1183 131.396L39.1064 129.785L39.9587 128.428L40.662 127.328L41.5924 125.895L42.3722 124.714L42.647 124.302V124.302L43.6341 122.837L43.9508 122.373L44.942 120.937L45.2855 120.445V120.445L45.9915 119.445L46.7214 118.424L47.474 117.386L48.2478 116.334L48.6423 115.804V115.804L49.4457 114.737L49.8542 114.202V114.202L50.684 113.128L51.105 112.591L51.9584 111.517C55.9745 106.514 60.4487 101.644 64.7753 98.3937C67.5081 96.3407 70.2872 94.6906 73.0522 93.3537L72.2803 93.3192L71.5448 93.2927L70.7932 93.2712L70.0263 93.2551L69.2448 93.2447L68.4496 93.2405L67.2326 93.2467V93.2467L66.4064 93.2598L65.5692 93.2806L64.7218 93.3095C64.2957 93.326 63.866 93.3457 63.4333 93.3688L62.5638 93.4198L61.687 93.4802L60.8035 93.5507C60.6557 93.5633 60.5077 93.5763 60.3595 93.5898L59.4675 93.676C59.3184 93.6913 59.1692 93.7071 59.0197 93.7233L58.1211 93.8262C57.971 93.8443 57.8207 93.8629 57.6704 93.882L56.7668 94.0026L55.861 94.1355L55.4075 94.2067V94.2067L54.4997 94.3589C53.743 94.4912 52.986 94.6374 52.2307 94.7986C46.0678 96.1142 40.0871 100.08 35.0613 104.398L34.3147 105.048L33.4025 105.866V105.866L32.5146 106.685L31.8227 107.341L31.2545 107.889L30.3346 108.797C29.7715 109.36 29.229 109.917 28.7091 110.461L27.9042 111.311L27.337 111.922L26.7918 112.517L26.0166 113.375L25.2945 114.189L24.4176 115.192L22.4654 117.457L22.1886 117.772L21.8906 118.1L21.7431 118.253C21.6764 118.32 21.6202 118.372 21.5748 118.408C21.0936 118.796 20.6268 118.954 20.2125 118.988L20.0897 118.995H19.9704C19.8137 118.99 19.6666 118.969 19.5315 118.938L19.4324 118.914C19.2309 118.859 19.0603 118.784 18.9298 118.716L18.7931 118.639L18.6369 118.533L2.75841 106.293C2.72028 106.263 2.68471 106.23 2.65207 106.193L2.60531 106.136C2.24977 105.661 2.34176 104.795 3.5157 104.68L3.66082 104.669L3.80587 104.666L3.87969 104.666L4.03256 104.674L4.19597 104.689L4.37413 104.712L4.57131 104.744L4.912 104.806L7.34213 105.306C7.40933 105.32 7.47654 105.332 7.54373 105.343C8.94397 105.56 10.4811 105.141 11.569 104.726L11.8967 104.583L12.1882 104.445L12.4401 104.317L12.736 104.155L12.9229 104.045L12.9528 104.025L13.0703 103.933L13.293 103.734L14.5582 102.533L15.2751 101.864L16.1255 101.092L16.7014 100.582L17.3274 100.039L17.7731 99.6597L18.2416 99.2669L18.7332 98.8612L19.2482 98.443L20.0651 97.7934V97.7934L20.0923 97.8263L20.8503 97.2049L21.6374 96.5684L22.4521 95.9189L23.5073 95.092V95.092L24.6007 94.2521L25.0481 93.9134V93.9134L25.9593 93.2329L26.4227 92.8916V92.8916L27.3643 92.208C33.2292 87.9924 40.1479 83.8101 46.63 81.8635C51.5128 80.3972 56.803 79.8624 61.9021 79.7552L62.8864 79.7397C63.2137 79.7362 63.5399 79.7343 63.8651 79.734L64.837 79.7374L65.8012 79.749L66.7569 79.7681L67.7029 79.7937L68.6383 79.8252L70.0196 79.8816L70.9245 79.924L72.6913 80.017L77.1998 80.2808L78.6889 80.3605L79.7456 80.4081L80.4195 80.4325L81.3822 80.4562L81.9906 80.4622L82.571 80.4594L83.1225 80.447C83.6593 80.4294 84.1512 80.3963 84.5941 80.3438C85.766 80.2048 86.7279 79.9042 87.5224 79.5071Z" fill="#27B7FF"/>
<path fill-rule="evenodd" clip-rule="evenodd" d="M95.8192 97.6231C96.1231 98.1055 96.4166 98.6034 96.7019 99.1152L96.9846 99.6314L97.3154 100.259L97.5416 100.702L96.8865 100.817L96.2083 100.947C95.9784 100.992 95.7448 101.041 95.5075 101.092L94.7844 101.253L94.0396 101.431C90.2611 102.364 85.678 103.964 80.5127 106.675C76.4526 108.805 72.5297 112.416 68.9469 116.57L69.0579 116.302L69.2023 115.981L69.4108 115.548L69.5403 115.293L69.7675 114.865L69.9415 114.552L70.1341 114.217L70.3458 113.862L70.5771 113.488L70.8284 113.097L71.1001 112.689L71.2439 112.479V112.479L71.6264 111.939V111.939L72.043 111.378L72.4014 110.916L72.7826 110.444L72.9819 110.204V110.204L73.3981 109.719C73.8263 109.229 74.2905 108.729 74.7928 108.222L75.3078 107.714C79.3547 103.806 85.6807 99.6672 95.232 97.7383L95.8192 97.6231ZM83.9108 89.4605C80.3572 90.3557 76.6284 91.6074 72.876 93.4393L72.3146 93.4143L71.2126 93.3732L70.6718 93.357V93.357L69.6108 93.3328L68.5768 93.3193L68.0699 93.3164V93.3164L67.0763 93.3182C66.7496 93.3204 66.4273 93.3242 66.1094 93.3295L65.1691 93.3499L64.2551 93.3789L63.3673 93.4161L62.5055 93.4611L61.6696 93.5133L60.8594 93.5723L60.4639 93.6043V93.6043L59.6919 93.6726L58.9453 93.7466L58.2237 93.8259L57.5271 93.9098L56.8553 93.998L56.2081 94.0901L55.5854 94.1854L54.987 94.2837L54.4127 94.3844L53.8623 94.4871L53.3358 94.5913L52.8328 94.6966L52.3534 94.8025L51.8972 94.9084L52.0819 94.7525L52.2298 94.6377L52.4989 94.4427L52.7567 94.2682L53.0642 94.072L53.2977 93.9305L53.5546 93.7813L53.9847 93.5444L54.302 93.3789L54.6443 93.2083L55.0122 93.0331L55.4061 92.8542L55.8266 92.6723L56.5079 92.3953V92.3953L56.9967 92.209C57.1643 92.1467 57.3366 92.0844 57.5137 92.0222L58.0594 91.8357L58.6343 91.6501L59.2388 91.4663L59.8735 91.2849L60.5388 91.1066L61.2353 90.9323L61.8325 90.7922C61.9339 90.7691 62.0361 90.7462 62.1393 90.7234L62.7692 90.5887V90.5887L63.4212 90.4582V90.4582L64.0956 90.3323V90.3323L64.7927 90.2113C65.265 90.1324 65.7526 90.057 66.2559 89.9858L67.0226 89.8822V89.8822L67.813 89.7851V89.7851L68.6275 89.695V89.695L69.4662 89.6124V89.6124L70.3295 89.5375V89.5375L71.2176 89.4709V89.4709L72.1308 89.4129C72.4394 89.395 72.7523 89.3787 73.0694 89.3639L74.0337 89.3244C74.5222 89.307 75.0205 89.2934 75.5287 89.2837L76.5583 89.2695C77.6011 89.2607 78.6838 89.2682 79.8076 89.2938L80.9452 89.3256C81.3289 89.3382 81.7173 89.3529 82.1104 89.3698L83.3036 89.4269C83.5048 89.4375 83.7072 89.4487 83.9108 89.4605Z" fill="#06A0FF"/>
<path fill-rule="evenodd" clip-rule="evenodd" d="M111.511 38.0142L111.74 38.2801L111.993 38.5612L112.226 38.8088L112.487 39.0719L112.671 39.2487L112.86 39.4217L113.053 39.5867C113.117 39.6398 113.181 39.6909 113.245 39.7392C113.765 40.1331 114.264 40.4178 114.769 40.6709L115.021 40.7952L115.551 41.0446L116.338 41.1194L117.282 41.2126L117.882 41.2766L118.461 41.3438L119.024 41.4159L119.573 41.4943C122.109 41.8774 124.309 42.52 127.675 44.1377C129.888 45.2014 131.569 46.9442 133.303 49.2835L133.551 49.6217L134.141 50.4508L134.54 51.0281L134.945 51.6247L135.358 52.2406L136.887 54.544L137.592 55.6002L138.083 56.3268C136.076 56.7793 127.951 63.0662 127.196 64.7535L126.906 64.4583L126.624 64.1694L126.336 63.8867L126.046 63.6114L125.756 63.3442L125.325 62.9613L124.909 62.6027L124.514 62.2719L123.463 61.4135L123.259 61.2425L123.159 61.1538L123.091 61.0866L123.07 61.0614L122.724 60.5997L106.014 94.9084C103.715 92.2982 101.53 90.1254 99.5112 88.3205L99.1096 87.9644L98.5335 87.4637L97.9671 86.9831L97.6877 86.7502L97.1365 86.2991L96.8649 86.0808L96.3295 85.6583L96.0659 85.4541L95.8051 85.2544L95.2918 84.8688L95.0394 84.6826L94.5434 84.3236L94.0592 83.9818L93.5872 83.657L93.1276 83.3486L92.6807 83.0564L92.2467 82.7799L91.826 82.5188L91.4188 82.2727L91.0253 82.0412L90.646 81.824L90.1039 81.524L89.7609 81.3407L89.433 81.1703L88.9699 80.9381L88.5421 80.7328L88.2771 80.6102L87.9104 80.4469L87.4805 80.2655L87.0412 80.0929L86.7148 79.9749L86.4157 79.8781C86.4157 79.8781 91.4188 70.0033 93.1162 61.2781C92.0802 59.1874 90.6133 58.0261 89.2796 57.3811L89.0987 57.2963L88.8487 57.1879L88.6034 57.0909L88.3638 57.0048L88.1306 56.9288L87.9048 56.8624L87.5818 56.7793L87.3782 56.734L87.0925 56.6795L86.9166 56.6512L86.6765 56.6193L86.4056 56.5932L86.1557 56.5795L85.9933 56.5781L87.2419 53.9499L87.8848 52.6108L88.1933 51.9818L88.4957 51.3783L88.7939 50.7991C89.3381 49.7589 89.871 48.8357 90.446 47.9971C91.6873 46.1871 93.3486 44.9807 94.8148 44.1982L95.0714 44.0645L95.3729 43.9153L95.8093 43.7139L95.9499 43.6525L96.2229 43.5382L96.4837 43.4347L96.8495 43.2989L97.1807 43.1853L97.3801 43.1214L97.7218 43.0199L97.9788 42.9512L98.1973 42.8996L99.4912 42.5321L100.273 42.2973L100.927 42.0909L101.406 41.9318L101.855 41.7736L102.129 41.6707L102.271 41.6142L102.527 41.5054C102.683 41.435 102.809 41.3692 102.894 41.3104L102.951 41.2677L109.543 38.1275L111.511 38.0142Z" fill="#DCEDFF"/>
<path fill-rule="evenodd" clip-rule="evenodd" d="M119.826 55.7695C119.826 55.7695 123.31 61.1803 123.31 61.1803C122.074 69.6192 117.643 79.5768 110.02 91.053C109.214 90.033 108.394 89.0814 107.566 88.1911C114.143 79.0124 119.826 68.1574 119.826 55.7695Z" fill="#BADAF7"/>
<path fill-rule="evenodd" clip-rule="evenodd" d="M119.637 54.1345L119.762 54.4577L119.895 54.7865L120.087 55.2378L120.129 55.3331C120.531 56.2483 120.996 57.1887 121.516 58.1009C122.094 59.1137 122.706 60.0285 123.347 60.809C123.44 60.9216 123.423 61.0879 123.31 61.1803C123.197 61.2727 123.031 61.2562 122.938 61.1435C122.277 60.338 121.649 59.3991 121.057 58.3622C120.527 57.4327 120.054 56.4761 119.645 55.5451L119.444 55.0767L119.271 54.6528L119.14 54.316C119.09 54.1792 119.161 54.0276 119.298 53.9775C119.435 53.9274 119.586 53.9977 119.637 54.1345ZM94.7123 52.0616C94.855 52.0917 94.9463 52.2317 94.9161 52.3743L94.7743 53.0681L94.613 53.9023L94.435 54.8593L94.2437 55.9219L93.9382 57.6754L93.5666 59.8931L93.4062 60.8784C93.383 61.0223 93.2474 61.1201 93.1033 61.0969C92.9592 61.0737 92.8613 60.9383 92.8845 60.7945L93.2593 58.5191L93.5731 56.6842L93.8691 55.0178L94.1367 53.5786L94.2942 52.7744L94.3991 52.2651C94.4293 52.1225 94.5695 52.0314 94.7123 52.0616ZM104.82 46.8899L104.865 46.8903C104.974 46.9039 105.051 47.0028 105.037 47.1113L104.941 47.8276L104.791 48.8625C104.593 50.1779 104.367 51.4987 104.117 52.7396L103.938 53.5963C103.915 53.7031 103.81 53.7708 103.703 53.7476C103.596 53.7244 103.528 53.619 103.551 53.5122L103.611 53.2339L103.729 52.6617C103.936 51.6334 104.126 50.5491 104.298 49.4584L104.44 48.5326L104.62 47.2476L104.644 47.0621C104.656 46.9692 104.73 46.8994 104.82 46.8899ZM112.936 41.2369C113.045 41.2385 113.133 41.3285 113.131 41.4377C113.108 42.9912 112.626 44.479 111.784 46.0023C111.587 46.3575 111.381 46.6991 111.142 47.0694L110.868 47.4843L110.295 48.3434C110.033 48.755 109.489 48.8669 109.087 48.6116L109.008 48.5557L106.505 46.5583C106.42 46.49 106.406 46.3655 106.474 46.2801C106.533 46.207 106.633 46.1863 106.714 46.2248L106.753 46.2491L109.256 48.2464C109.479 48.4247 109.808 48.3709 109.961 48.1313L110.191 47.7829L110.625 47.1348C110.941 46.6588 111.197 46.2445 111.437 45.8109C112.25 44.3399 112.712 42.9119 112.735 41.4317C112.736 41.3381 112.803 41.2606 112.891 41.2414L112.936 41.2369ZM100.708 43.168C100.793 43.2066 100.838 43.2982 100.821 43.3863L100.807 43.4298L98.9599 47.5148C98.9098 47.6257 98.9978 47.7427 99.0976 47.7423L99.1353 47.7364L103.315 45.9392C103.416 45.896 103.532 45.9423 103.575 46.0427C103.612 46.1287 103.584 46.2265 103.511 46.2799L103.472 46.3027L99.2745 48.1065C98.8394 48.2467 98.4427 47.8346 98.5736 47.4178L98.5987 47.352L100.445 43.267C100.49 43.1673 100.608 43.1231 100.708 43.168ZM101.949 13.1273C103.192 13.027 104.242 14.4286 104.819 15.4883L104.889 15.6189L105 15.8406L105.05 15.9449L105.136 16.1372C105.23 16.3566 105.519 16.4003 105.676 16.2208L105.919 15.9537L106.068 15.8007L106.232 15.6416C106.777 15.1337 107.532 14.6108 108.227 14.8039C109.021 15.0245 109.32 15.9015 109.462 16.7511L109.485 16.9006L109.52 17.1656L109.548 17.4212L109.594 17.8847L109.616 18.0828C109.637 18.2534 109.788 18.3756 109.952 18.3647L110.015 18.3542L110.147 18.3205L110.301 18.2874C110.793 18.1934 111.538 18.1663 112.141 18.7335C112.901 19.4492 112.867 20.2512 112.694 20.9592L112.662 21.0832L112.606 21.2812L112.491 21.656L112.458 21.7487L112.413 21.8567L112.325 22.0482L111.928 22.8428L111.64 23.4333L111.45 23.8409L111.318 24.1354L111.113 24.612L110.974 24.9533L110.832 25.3137L110.618 25.8909L110.475 26.3004L110.333 26.73L110.262 26.9525L110.122 27.4127L109.985 27.8936C109.84 28.4177 109.7 28.9777 109.57 29.5749L109.474 30.0299L109.36 30.6184C109.286 31.0181 109.217 31.4327 109.153 31.8625C109.098 32.5134 109.158 33.326 109.243 33.8546C109.292 34.1648 108.915 34.3586 108.694 34.1352C107.898 33.3275 107.498 32.203 107.31 31.1003L107.273 30.8644L107.23 30.5301L107.205 30.2826V30.2826L107.186 30.0388L107.166 29.6433V29.6433L107.158 29.2649L107.158 29.1193L107.162 28.8394L107.171 28.5764L107.19 28.2183L107.213 27.9103L107.273 27.2974L107.302 27.0959L107.342 26.8792L107.388 26.6558L107.464 26.327L107.561 25.9455L107.647 25.6345L107.658 25.581L107.666 25.5092C107.676 25.3403 107.638 25.039 107.263 24.9423C106.867 24.8403 106.726 25.0451 106.68 25.1563L106.66 25.2169L106.545 25.5302L106.383 25.9945L106.282 26.3037L106.221 26.5039C106.06 27.0543 105.777 27.1443 105.508 27.0902C105.24 27.0348 105.115 26.7595 105.102 26.4521L105.102 26.3744V26.3744L105.118 26.1486L105.141 25.9271L105.173 25.6697L105.258 25.0798L105.334 24.6032L105.476 23.7841C105.605 22.9832 105.603 22.3196 105.39 21.8048L105.327 21.668L105.233 21.4848L105.157 21.35L105.098 21.2519L105.03 21.1485L104.953 21.0409L104.866 20.9301L104.768 20.8171L104.659 20.703L104.471 20.5321L104.33 20.42C103.562 19.8462 102.221 19.3768 99.8186 19.6669C97.5766 19.9382 96.3683 21.1176 95.7239 22.1941L95.652 22.3177L95.5383 22.53C95.4672 22.6698 95.4053 22.8059 95.3516 22.9357C95.2278 23.2353 94.792 23.1939 94.7342 22.8748C94.662 22.476 94.6456 21.997 94.6498 21.4638L94.6535 21.1928L94.6859 19.9192L94.6955 19.4235C94.7579 17.1016 95.2401 15.6053 96.3845 15.1715C96.9978 14.9386 97.6509 15.4668 98.1129 15.9694L98.1972 16.0631L98.3293 16.2179L98.4458 16.3619C98.5846 16.537 98.8472 16.5156 98.9643 16.341L98.9976 16.2772L99.1162 15.9805L99.21 15.7581L99.3163 15.5213L99.4357 15.2743C99.9195 14.3139 100.706 13.2274 101.949 13.1273Z" fill="#4F77FF"/>
<path fill-rule="evenodd" clip-rule="evenodd" d="M65.4603 73.1201C65.6005 73.1201 72.7669 72.3714 72.7669 72.3714L97.9533 89.3682C98.8066 89.9438 98.592 91.2652 97.6008 91.5359L78.418 96.7767L65.4603 73.3554" fill="#B7C1D0"/>
<path fill-rule="evenodd" clip-rule="evenodd" d="M71.4047 75.6694L73.3414 76.0863L91.2195 89.5284L77.4736 92.1595L71.4047 75.6694Z" fill="#D4DCE7"/>
<path fill-rule="evenodd" clip-rule="evenodd" d="M43.0768 56.0638L51.2376 78.9312C51.3207 79.1549 51.474 79.3458 51.6745 79.4752L77.6266 96.5964C78.486 97.1512 79.5696 96.3379 79.2839 95.3533L71.9296 70.0156C71.8454 69.7264 71.6482 69.4839 71.3822 69.344L44.6239 54.6931C43.7264 54.2199 42.7216 55.1102 43.0768 56.0638" fill="#A9B4C5"/>
<path fill-rule="evenodd" clip-rule="evenodd" d="M61.4281 75.1358C61.6287 76.0396 61.3785 76.8634 60.8699 76.9759C60.361 77.0881 59.7857 76.4467 59.5851 75.5432C59.3845 74.6393 59.6347 73.8156 60.1433 73.7034C60.6522 73.5909 61.2275 74.2323 61.4281 75.1358" fill="white"/>
<path fill-rule="evenodd" clip-rule="evenodd" d="M98.6183 68.0316L98.6704 68.1852V68.1852L98.7342 68.3358V68.3358L98.7944 68.4608V68.4608L98.8706 68.6036C98.8847 68.6288 98.8995 68.6547 98.9151 68.6813L99.018 68.8483C99.0555 68.9064 99.0963 68.9669 99.1407 69.0295L99.2847 69.2234C99.414 69.3899 99.5671 69.5681 99.748 69.7542L99.9787 69.9811C100.468 70.4414 101.126 70.9381 102.009 71.418C102.766 71.8296 103.731 72.1707 104.788 72.5008L105.505 72.72V72.72L106.993 73.164V73.164L107.748 73.3967C110.013 74.1116 112.243 74.9933 113.523 76.5164C114.623 77.8251 114.99 79.7428 115.252 81.9573L115.332 82.6662V82.6662L115.489 84.1343V84.1343L115.574 84.8892C115.813 86.9179 116.166 89.064 117.005 91.1408C119.262 96.723 127.162 102.752 131.484 102.826L131.625 102.827V102.827L131.912 102.825V102.825L132.207 102.817V102.817L132.508 102.801V102.801L132.816 102.777C132.868 102.773 132.92 102.768 132.972 102.763L133.288 102.727C133.342 102.72 133.395 102.713 133.448 102.706L133.771 102.658C133.825 102.649 133.879 102.64 133.933 102.63L134.26 102.568V102.568L134.59 102.496C134.921 102.42 135.254 102.329 135.586 102.222L135.918 102.109V102.109L136.249 101.985C139.714 100.621 142.87 97.3483 142.048 90.3782L142.257 90.4797V90.4797L142.439 90.5821V90.5821L142.664 90.7235V90.7235L142.855 90.8566V90.8566L142.991 90.9588V90.9588L143.133 91.0721V91.0721L143.279 91.1968V91.1968L143.429 91.3333C143.454 91.357 143.479 91.3813 143.504 91.406L143.657 91.5607V91.5607L143.81 91.7278V91.7278L143.962 91.9077V91.9077L144.112 92.1007C144.137 92.134 144.162 92.1678 144.186 92.2022L144.332 92.4155V92.4155L144.473 92.6426C145.487 94.3598 146.038 97.2201 144.116 101.765L144.355 101.755V101.755L144.863 101.718V101.718L145.271 101.678V101.678L145.578 101.642V101.642L145.907 101.598V101.598L146.254 101.543V101.543L146.614 101.478V101.478L146.983 101.402V101.402L147.357 101.314C147.544 101.267 147.732 101.214 147.917 101.157L147.91 101.274V101.274L147.895 101.419C147.88 101.532 147.855 101.677 147.814 101.849L147.761 102.054V102.054L147.691 102.282V102.282L147.634 102.444V102.444L147.568 102.614V102.614L147.492 102.792V102.792L147.407 102.975V102.975L147.311 103.165V103.165L147.203 103.361V103.361L147.083 103.561V103.561L146.951 103.765C146.905 103.834 146.856 103.903 146.805 103.973L146.645 104.184V104.184L146.471 104.397C145.956 105.003 145.258 105.63 144.31 106.217L143.966 106.422C142.07 107.505 139.266 108.417 135.117 108.743L134.922 109.385V109.385L134.752 109.991V109.991L134.549 110.765V110.765L134.417 111.301V111.301L134.282 111.884V111.884L134.145 112.511V112.511L134.01 113.177V113.177L133.88 113.877V113.877L133.758 114.606V114.606L133.683 115.106V115.106L133.613 115.616V115.616L133.549 116.134V116.134L133.493 116.66V116.66L133.445 117.19C133.438 117.279 133.431 117.368 133.425 117.457L133.391 117.994C133.251 120.593 133.475 123.268 134.503 125.321C135.628 127.568 137.339 129.355 139.014 130.702L139.432 131.029V131.029L139.846 131.338C139.983 131.438 140.119 131.535 140.254 131.629L140.654 131.902C140.72 131.946 140.786 131.989 140.851 132.032L141.235 132.277V132.277L141.605 132.505V132.505L141.961 132.715V132.715L142.46 132.996V132.996L142.911 133.237V133.237L143.428 133.497V133.497L143.83 133.687V133.687L144.228 133.861V133.861L144.415 133.913V133.913L144.572 133.964V133.964L144.76 134.033C145.36 134.271 146.234 134.767 146.073 135.61C145.841 136.818 145.22 137.127 144.256 137.266L143.849 137.313V137.313L143.517 137.337V137.337L143.274 137.346V137.346L142.999 137.349V137.349L142.585 137.341V137.341L142.359 137.33V137.33L142.12 137.313V137.313L141.74 137.277V137.277L141.472 137.244V137.244L141.192 137.204V137.204L140.903 137.156V137.156L140.602 137.099C140.552 137.088 140.5 137.078 140.449 137.067L140.134 136.995V136.995L139.81 136.914V136.914L139.477 136.821C139.42 136.805 139.364 136.788 139.307 136.771L138.961 136.661V136.661L138.607 136.538C138.428 136.474 138.247 136.405 138.062 136.33L137.69 136.174C137.565 136.12 137.439 136.063 137.311 136.003L136.926 135.818C136.732 135.721 136.536 135.618 136.338 135.509L135.939 135.283C133.597 133.913 131.004 131.661 128.503 127.981L128.183 128.043V128.043L127.89 128.09V128.09L127.515 128.139V128.139L127.064 128.185V128.185L126.545 128.222V128.222L126.262 128.235V128.235L125.966 128.243V128.243L125.656 128.245V128.245L125.333 128.241C125.278 128.24 125.223 128.239 125.168 128.237L124.828 128.222V128.222L124.479 128.199V128.199L124.121 128.167V128.167L123.754 128.125C123.692 128.117 123.63 128.108 123.568 128.1L123.191 128.041V128.041L122.808 127.971V127.971L122.42 127.888C119.169 127.144 115.498 125.005 113.822 119.423L113.567 119.378V119.378L113.305 119.323V119.323L112.862 119.216V119.216L112.541 119.129V119.129L112.182 119.022V119.022L111.789 118.895V118.895L111.364 118.745V118.745L111.065 118.632V118.632L110.754 118.507V118.507L110.433 118.371V118.371L110.102 118.223V118.223L109.762 118.062V118.062L109.414 117.889V117.889L109.059 117.702C108.939 117.637 108.819 117.57 108.698 117.5L108.331 117.285C108.147 117.173 107.961 117.056 107.774 116.933L107.399 116.68C105.205 115.154 102.913 112.808 101.352 109.226L99.5049 104.943V104.943L99.0466 103.902V103.902L98.7394 103.218V103.218L98.4298 102.543V102.543L98.117 101.877V101.877L97.8002 101.221C97.747 101.113 97.6936 101.005 97.64 100.898L97.3154 100.259V100.259L96.9847 99.6315C94.479 94.9739 91.3804 91.3728 86.0818 90.0969L85.6983 90.0106V90.0106L85.2189 89.9381V89.9381L84.7175 89.8749V89.8749L84.254 89.8261V89.8261L83.7286 89.7815V89.7815L83.3497 89.7566V89.7566L82.952 89.7372V89.7372L82.5388 89.7249C82.4688 89.7235 82.3983 89.7225 82.3275 89.7218L81.8976 89.7227C81.4638 89.7287 81.0199 89.7507 80.5814 89.7953L80.0757 89.8551V89.8551L79.9666 89.8608V89.8608L79.8236 89.859C79.4869 89.8419 79.009 89.7223 79.0269 89.1781L79.0394 88.9834C79.0927 88.4004 79.3175 87.338 80.0485 86.5164C80.5806 85.9183 81.3803 85.4479 82.5766 85.3825L83.4497 85.3361V85.3361L83.7699 85.3226V85.3226L84.2769 85.3078V85.3078L84.6324 85.3033V85.3033L85.0016 85.3042C85.0643 85.3049 85.1275 85.3058 85.1913 85.3071L85.5808 85.3182V85.3182L85.9836 85.3375V85.3375L86.3994 85.366C86.4698 85.3716 86.5407 85.3776 86.6122 85.3841L87.0473 85.4285C87.1944 85.4452 87.3436 85.464 87.4949 85.4849L87.955 85.5542C90.9852 86.0495 94.7881 87.4372 99.1212 91.0479L99.1702 90.9061V90.9061L99.2227 90.7358V90.7358L99.286 90.5058V90.5058L99.3543 90.2206V90.2206L99.3997 90.0022C99.4072 89.964 99.4145 89.925 99.4217 89.8851L99.4633 89.6358V89.6358L99.5002 89.3676V89.3676L99.5306 89.082V89.082L99.5528 88.7804C99.6377 87.286 99.3748 85.279 97.8828 83.4751L97.7241 83.2892C95.8135 81.123 95.2823 79.7303 95.1349 78.5973L95.108 78.3496C95.1045 78.309 95.1013 78.2687 95.0986 78.2286L95.0861 77.9914V77.9914L95.0802 77.7596V77.7596L95.0784 77.3165L95.1951 77.5276V77.5276L95.3647 77.8119V77.8119L95.5129 78.0438C95.9956 78.7761 96.8083 79.7885 97.5749 79.717C98.406 79.6392 98.2234 78.7839 97.6957 77.8191L97.5507 77.5654V77.5654L97.3927 77.3094V77.3094L97.2243 77.0536V77.0536L97.0481 76.8008C97.0183 76.7591 96.9882 76.7175 96.958 76.6763L96.8669 76.5536C96.6742 76.2971 96.4788 75.9615 96.3056 75.5634L96.1936 75.289C95.5628 73.6362 95.35 71.0955 97.0173 68.6506L97.2705 68.2914V68.2914L97.3898 68.1429V68.1429L97.4881 68.0342C97.5056 68.016 97.5236 67.9978 97.542 67.9798L97.6577 67.8759C97.9583 67.6286 98.3375 67.5007 98.6183 68.0316Z" fill="#FD5C00"/>
<path fill-rule="evenodd" clip-rule="evenodd" d="M116.751 110.458C116.88 110.669 116.831 110.939 116.647 111.093L116.536 111.172L116.458 111.235L116.328 111.355L116.298 111.385C116.043 111.639 115.785 111.978 115.54 112.412C114.77 113.779 114.325 115.731 114.389 118.376C114.396 118.648 114.181 118.874 113.908 118.881C113.635 118.887 113.409 118.672 113.402 118.4C113.334 115.584 113.818 113.457 114.679 111.928C115.18 111.04 115.698 110.523 116.072 110.294C116.305 110.152 116.609 110.225 116.751 110.458ZM135.03 109.021C135.759 110.68 137.376 113.276 140.651 114.548C142.692 115.34 144.616 115.401 146.177 115.166L146.297 115.147L146.535 115.119C147.159 115.064 147.704 115.187 147.805 115.832C147.884 116.334 147.489 116.739 147.251 116.934L147.147 117.013L147.037 117.084L146.873 117.176L146.717 117.257L146.443 117.388L146.097 117.538L145.792 117.657L145.567 117.737L145.327 117.818L145.069 117.897L144.797 117.974L144.508 118.048L144.205 118.117L143.887 118.181L143.555 118.238L143.119 118.298L142.663 118.345L142.474 118.359L142.088 118.38L141.689 118.388C139.459 118.4 136.67 117.826 133.581 115.871L133.62 115.561L133.728 114.801L133.848 114.065L133.976 113.357L134.164 112.423L134.273 111.922L134.382 111.45L134.592 110.596L134.737 110.046L134.94 109.324L135.03 109.021ZM109.7 101.024L109.839 101.066L114.265 102.584C115.518 103.014 115.93 104.558 115.1 105.552L115.006 105.656L111.918 108.853C111.383 109.406 110.568 109.574 109.863 109.288L109.724 109.225L106.472 107.587C105.529 107.112 105.172 105.962 105.655 105.044L105.723 104.926L107.636 101.849C108.071 101.148 108.911 100.82 109.7 101.024ZM118 94.3785L119.176 94.5152C121.313 97.3471 124.413 99.9655 127.318 101.564C127.34 101.576 127.31 101.628 127.238 101.707L127.13 101.816C127.109 101.836 127.086 101.857 127.062 101.879L126.897 102.019C126.866 102.044 126.834 102.069 126.801 102.095L126.585 102.258C125.812 102.816 124.529 103.524 123.197 103.635C122.371 103.591 121.94 103.359 121.578 103.101L121.194 102.817C121.097 102.748 120.996 102.68 120.885 102.619C120.692 102.511 120.457 102.483 120.188 102.472L119.603 102.457C119.08 102.435 118.471 102.35 117.802 101.922C117.52 101.741 117.421 101.434 117.349 101.152L117.289 100.92C117.249 100.775 117.203 100.651 117.121 100.578C117.001 100.471 116.858 100.394 116.701 100.326L116.2 100.126C115.807 99.964 115.39 99.7358 115.053 99.1924C114.788 98.7657 114.726 98.4728 114.712 98.2451L114.709 98.0856V98.0856L114.709 97.9441C114.706 97.8096 114.687 97.6925 114.587 97.5642C113.874 96.6492 114.17 95.9772 114.493 95.601L114.589 95.4971V95.4971L114.682 95.4112V95.4112L114.8 95.317V95.317L114.893 95.2547L118 94.3785ZM105.714 89.8846L105.839 89.9234L108.065 90.7206C108.502 90.8767 108.843 91.2247 108.99 91.6647C109.221 92.3574 108.922 93.1087 108.295 93.4591L108.174 93.52L106.069 94.4628C105.729 94.6149 105.347 94.6362 104.995 94.5254L104.865 94.4777L103.999 94.1146C103.174 93.7691 102.828 92.7883 103.254 92.0028L103.998 90.6282C104.332 90.0096 105.045 89.708 105.714 89.8846ZM81.889 87.2442L82.1947 87.2565C82.2928 87.265 82.3654 87.3514 82.3569 87.4495C82.3484 87.5476 82.262 87.6202 82.1639 87.6117L82.0809 87.6067C81.3737 87.5734 80.512 87.6613 79.6898 87.971C79.606 88.0025 79.5237 88.0362 79.443 88.0719C79.353 88.1118 79.2477 88.0712 79.2078 87.9812C79.1679 87.8912 79.2086 87.7859 79.2986 87.746C79.3855 87.7075 79.4741 87.6713 79.5642 87.6373C80.3598 87.3377 81.1816 87.234 81.889 87.2442ZM82.7843 85.9945L82.8997 86.011L82.9358 86.0182C83.0318 86.0398 83.0922 86.1352 83.0705 86.2312C83.0489 86.3273 82.9535 86.3876 82.8575 86.366L82.7427 86.3486C82.1559 86.2796 81.3514 86.3654 80.3754 86.7316C80.2832 86.7662 80.1805 86.7195 80.1459 86.6273C80.1113 86.5352 80.158 86.4324 80.2502 86.3978C81.2811 86.011 82.1427 85.919 82.7843 85.9945ZM96.6148 76.1723C96.6978 76.3141 96.7826 76.4414 96.8668 76.5535L96.9579 76.6763L97.1369 76.9266L97.3926 77.3093L97.5507 77.5654L97.6957 77.8191L97.7598 77.9391L97.8761 78.1745C98.2531 78.9855 98.3021 79.6489 97.5748 79.717C96.9313 79.777 96.2552 79.0731 95.7692 78.4123L95.5963 78.1681L95.4355 77.9245L95.3007 77.7072L95.1215 77.3967L95.0783 77.3165L95.0711 77.1593C95.0487 75.9424 95.8815 75.9407 96.6148 76.1723Z" fill="#AF0800"/>
<path fill-rule="evenodd" clip-rule="evenodd" d="M107.71 77.3599L107.841 77.3723C108.278 77.4461 108.456 77.7554 108.52 77.9215L108.547 78.001V78.001L108.554 78.0282C108.875 79.912 107.749 81.6992 106.871 82.7438L106.68 82.9635V82.9635L106.502 83.1571C106.473 83.1871 106.446 83.216 106.419 83.2436L106.267 83.3953V83.3953L106.137 83.517V83.517L105.995 83.6399V83.6399L105.824 83.7544V83.7544L105.672 83.8442C105.364 84.0095 104.831 84.1849 103.775 84.0427C102.321 83.8471 100.304 82.6191 100.365 81.6707C100.392 81.2441 100.769 80.9945 101.048 80.8673L101.2 80.8052V80.8052L101.627 80.6695V80.6695L102.156 80.4939C102.241 80.4649 102.325 80.4361 102.407 80.4074L102.881 80.2375V80.2375L103.321 80.0717V80.0717L103.726 79.9103V79.9103L104.1 79.7536V79.7536L104.443 79.6017V79.6017L104.755 79.4548V79.4548L105.04 79.3134V79.3134L105.298 79.1775V79.1775L105.53 79.0474V79.0474L105.737 78.9234V78.9234L105.922 78.8056V78.8056L106.085 78.6945V78.6945L106.227 78.5901V78.5901L106.351 78.4927V78.4927L106.504 78.3603V78.3603L106.585 78.2815V78.2815L106.681 78.1782V78.1782L106.767 78.0693V78.0693L106.813 77.9952V77.9952L106.828 77.9641L106.832 77.9535V77.9535L106.872 77.8821C106.97 77.7224 107.248 77.3505 107.71 77.3599ZM112.199 75.3465L113.647 75.4085L114.907 75.4466L115.709 75.4623L116.532 75.4702L116.971 75.4701L117.593 75.4635L118.187 75.4482C118.668 75.4315 119.106 75.4042 119.467 75.363C120.522 75.2423 120.745 75.8636 120.786 76.2285L120.794 76.372L120.786 76.5487L120.77 76.7398L120.733 77.0269L120.694 77.259L120.641 77.5147C120.487 78.1773 120.179 78.9903 119.56 79.4189C118.693 80.0194 116.553 79.5614 114.68 78.8237C114.42 77.9335 114.058 77.1529 113.523 76.5164C113.215 76.1501 112.853 75.8209 112.448 75.5223L112.199 75.3465ZM102.167 75.1213C102.391 75.1213 102.687 75.1827 102.988 75.3704C103.492 75.6848 103.787 76.2478 103.779 77.0425C103.776 77.3148 103.553 77.5331 103.28 77.5302C103.007 77.5273 102.789 77.3042 102.792 77.032C102.797 76.5745 102.671 76.3352 102.465 76.2067C102.366 76.1452 102.264 76.1171 102.201 76.1095L102.167 76.1072C101.895 76.1072 101.674 75.8865 101.674 75.6142C101.674 75.342 101.895 75.1213 102.167 75.1213ZM97.0519 68.6023L97.2705 68.2914V68.2914L97.3459 68.1953V68.1953L97.4372 68.0889C97.4701 68.0526 97.5051 68.0158 97.542 67.9799L97.6576 67.8759C97.9381 67.6451 98.2871 67.5183 98.5608 67.9341L98.6218 68.0394V68.0394L98.7053 68.2089V68.2089L98.8377 68.4554V68.4554L98.9576 68.6627V68.6627L99.1016 68.8956V68.8956L99.2691 69.1466C99.3884 69.3184 99.5226 69.4973 99.6707 69.6733L99.4422 69.7047V69.7047L99.1813 69.7509C99.1478 69.7574 99.1129 69.7644 99.0767 69.772L98.8446 69.8237C98.8036 69.8335 98.7614 69.8438 98.7183 69.8547L98.4483 69.9278C98.4016 69.9413 98.354 69.9555 98.3058 69.9703L98.0088 70.0679C97.3002 70.3163 96.4943 70.7123 95.8685 71.3353L95.8924 71.2098V71.2098L95.9558 70.9475V70.9475L96.0062 70.7699V70.7699L96.0711 70.5651V70.5651L96.1519 70.3359C96.1816 70.2557 96.2142 70.1719 96.25 70.085L96.3669 69.8152C96.536 69.4441 96.7592 69.0299 97.0519 68.6023V68.6023Z" fill="#470D00"/>
<path fill-rule="evenodd" clip-rule="evenodd" d="M138.075 56.3302L138.205 56.5465L138.496 57.0451L138.787 57.5594L139.078 58.089L139.223 58.3593L139.582 59.0511L139.936 59.7648L140.214 60.3511L140.496 60.971L140.771 61.6044C143.26 67.4717 144.77 74.9871 141.813 82.5227C139.377 88.7294 134.959 92.4019 130.951 94.5525L130.42 94.8303L129.894 95.0907L129.396 95.3248C128.654 95.6644 127.939 95.9528 127.268 96.1971L126.828 96.3535L126.193 96.5647L125.79 96.6905L125.403 96.8049L125.034 96.9083L124.685 97.0013L124.198 97.1223L123.761 97.2223L123.262 97.326L122.829 97.4057C122.735 97.4586 122.632 97.5011 122.523 97.5311C120.715 98.0272 119.008 98.3793 117.442 98.6116L116.818 98.6988L116.439 98.7466L116.091 98.7868L115.774 98.8198L115.359 98.8568L115.017 98.8802L114.832 98.8889C114.078 98.9166 113.444 98.3286 113.417 97.5756C113.394 96.9535 113.792 96.4133 114.356 96.2287L113.906 96.2592L113.532 96.2791L113.193 96.293L112.751 96.3037L112.501 96.305L112.29 96.3023C111.536 96.2844 110.939 95.6592 110.957 94.9058C110.971 94.2866 111.397 93.7736 111.967 93.6205L111.832 93.6257L111.215 93.6409L110.515 93.6473L110.318 93.6459C109.564 93.6346 108.961 93.0146 108.973 92.2612C108.982 91.6263 109.424 91.0993 110.015 90.9559C109.395 90.8239 108.934 90.2713 108.939 89.6137C108.945 88.8945 109.507 88.3096 110.214 88.2632L110.316 88.2603L110.704 88.2576L110.961 88.2526L111.514 88.2362L112.109 88.2106L112.742 88.1752C114.04 88.0942 115.36 87.9625 116.663 87.7713C115.702 87.303 114.873 86.6957 114.173 85.9883C113.665 85.4755 113.332 85.0201 113.151 84.7021C112.78 84.0463 113.011 83.2138 113.667 82.8426C114.291 82.4899 115.074 82.6804 115.47 83.2626L115.553 83.3978L115.624 83.5018L115.725 83.6348L115.858 83.793L116.022 83.9728L116.116 84.0697C116.983 84.9455 118.138 85.6093 119.637 85.9081L119.972 85.8779L120.179 85.8542L120.513 85.8078L120.748 85.7689L120.994 85.723L121.249 85.6694L121.513 85.6076L121.785 85.5371L122.064 85.4573L122.349 85.3677L122.641 85.2677L122.789 85.2136L123.087 85.0969C123.428 84.9584 123.776 84.7973 124.127 84.6099L124.479 84.4137C126.714 83.1137 129.017 80.7124 130.223 76.2878C131.427 71.8667 129.84 68.0763 127.531 65.1636L127.196 64.7535L127.267 64.5136C127.822 62.7436 129.292 60.7512 131.192 59.2059C133.084 57.6672 135.697 56.6759 137.775 56.3678L137.909 56.3499L138.075 56.3302ZM85.9976 56.5782L86.1557 56.5795L86.4056 56.5932L86.6765 56.6194L86.9165 56.6512L87.0925 56.6795L87.3781 56.734L87.5817 56.7793L87.9048 56.8625L88.1306 56.9289L88.3637 57.0048L88.6034 57.091L88.8487 57.1879L89.0986 57.2963L89.2796 57.3811C90.6132 58.0261 92.0802 59.1874 93.1161 61.2781C92.8616 62.5866 92.5513 63.9144 92.1853 65.2616L91.8323 65.4911L91.3638 65.7883L91.0315 65.9941L90.5035 66.313L89.9409 66.6424L89.3444 66.9803L88.9283 67.2093L88.4978 67.4407L88.0529 67.6738L87.594 67.9082L87.1213 68.1432L86.635 68.3782L86.1354 68.6126L85.6226 68.846L85.097 69.0777L84.5586 69.3071L84.0079 69.5337L83.4449 69.7568L82.8699 69.976L82.2832 70.1906L81.6849 70.4001L81.0754 70.6039C78.9224 71.3063 76.5659 71.8932 74.0498 72.2534L72.6381 72.4594L71.9296 70.0156C71.8454 69.7265 71.6482 69.4839 71.3822 69.344L61.3354 63.8422L61.7041 63.9015L62.3762 63.9994L63.2018 64.1057L63.9039 64.1837L64.6171 64.2507L64.9052 64.2743L65.4855 64.3152C68.8858 64.5294 72.5372 64.303 75.7243 63.0995C80.3534 61.3516 83.6612 59.048 85.9976 56.5782ZM104.33 20.42L104.471 20.5322L104.537 20.5889L104.659 20.7031L104.768 20.8171L104.866 20.9301L104.953 21.041L105.03 21.1486L105.098 21.252L105.157 21.3501L105.233 21.4849L105.327 21.6681C105.601 22.2002 105.617 22.9104 105.476 23.7841L105.334 24.6032L105.258 25.0798L105.173 25.6698L105.141 25.9271L105.118 26.1487L105.102 26.3744L105.102 26.4521C105.115 26.7595 105.24 27.0349 105.508 27.0902C105.756 27.1402 106.016 27.0674 106.181 26.6229L106.282 26.3037L106.383 25.9946L106.545 25.5302L106.66 25.2169L106.669 25.1841C106.702 25.0849 106.831 24.831 107.263 24.9424C107.638 25.0391 107.676 25.3404 107.666 25.5092L107.658 25.5811L107.647 25.6345L107.561 25.9455L107.464 26.3271L107.388 26.6558L107.342 26.8792L107.302 27.096L107.273 27.2975L107.213 27.9104L107.19 28.2183L107.171 28.5764L107.162 28.8394L107.158 29.265L107.166 29.6434L107.186 30.0389C107.197 30.2 107.211 30.3641 107.23 30.5302L107.273 30.8645C107.443 32.0408 107.841 33.2698 108.694 34.1353C108.836 34.2789 109.042 34.2501 109.159 34.1288L109.287 34.4178C109.597 35.0968 109.952 35.717 110.3 36.2586L110.473 36.5227L110.671 36.8136L110.863 37.085L111.046 37.3361L111.3 37.6727L111.752 38.2558L111.834 38.3665L111.892 38.4508C112.048 38.7003 112.098 39.0401 112.108 39.3192L112.11 39.4529L112.106 39.6019L112.074 40.0009C111.769 43.0633 107.942 45.0781 105.85 45.3804C104.448 45.5824 103.352 44.9696 102.702 44.4634L102.512 44.3081L102.371 44.1832L102.254 44.073L102.071 43.8899C101.965 43.7861 101.896 43.6453 101.851 43.5245L101.823 43.4386L101.796 43.3397L101.783 43.2748L101.57 42.7543L101.213 41.904L100.731 40.7895L100.192 39.5823L99.6708 38.4508C99.3665 38.1189 99.0596 38.0289 98.7331 38.0184L98.6235 38.0176L98.4641 38.024L97.9624 38.0604L97.7778 38.0651C97.153 38.0647 96.4313 37.876 95.5348 36.758C94.4943 35.4604 94.0315 33.9906 93.8503 32.6956L93.8195 32.4549L93.7885 32.1472L93.7767 31.9966L93.7597 31.7028L93.7543 31.5599L93.7509 31.4198L93.7492 31.1486L93.7537 30.8903L93.7633 30.6462L93.7773 30.4174L93.7945 30.205L93.8243 29.9196L93.8455 29.7531L93.8865 29.4824L93.9122 29.3384L95.2308 23.0854C95.2814 23.0518 95.3241 23.0022 95.3516 22.9358C95.4053 22.8059 95.4672 22.6699 95.5383 22.5301L95.652 22.3178C96.2768 21.2097 97.4904 19.9487 99.8186 19.667C102.221 19.3768 103.562 19.8462 104.33 20.42Z" fill="#FFB4DE"/>
<path fill-rule="evenodd" clip-rule="evenodd" d="M92.3913 60.0508C92.6492 60.4194 92.8927 60.8271 93.1161 61.2781C92.7384 63.2199 92.2378 65.2043 91.6145 67.2315L91.2018 67.5748C87.5315 70.5622 81.8466 73.4099 73.6368 73.5693C73.4081 73.5737 73.1835 73.5761 72.9627 73.5764L71.9296 70.0156C72.4898 70.0318 73.0603 70.0218 73.6368 69.9751C76.6384 69.7322 79.2555 69.21 81.6944 68.2418L82.1497 68.055L82.6292 67.8448C85.1236 66.7144 87.4538 65.0775 89.8526 62.7459L90.2319 62.372L90.6935 61.903L90.9252 61.6619L91.1575 61.4165L91.6242 60.9122L91.937 60.566L92.3913 60.0508ZM94.215 34.2878L94.2806 34.442L94.3594 34.6064C94.8023 35.4788 95.8173 36.6748 98.0816 36.8552C100.874 37.0783 103.074 36.4197 104.646 35.7102L104.847 35.6174L105.176 35.4582L105.483 35.3006L105.714 35.1783L105.771 35.1546C105.888 35.1134 106.019 35.1197 105.967 35.409L105.83 36.007L105.756 36.2982L105.696 36.5168L105.626 36.7524L105.546 37.0031L105.454 37.2666L105.351 37.541L105.235 37.824L105.105 38.1136L104.961 38.4078C104.356 39.5906 103.39 40.8312 101.845 41.526C101.686 41.5976 101.519 41.6464 101.346 41.6746L101.172 41.6961L101.01 41.3745L100.893 41.1533L100.593 40.6067L100.314 40.1212L99.9967 39.5869C99.7057 39.2694 99.3797 39.0658 99.0237 38.8985L98.8432 38.8175L98.5824 38.7102L97.8911 38.4367C97.1733 38.1378 96.3787 37.7168 95.5344 36.7581C94.8622 35.9948 94.4872 35.1228 94.215 34.2878Z" fill="#FF88C3"/>
<path fill-rule="evenodd" clip-rule="evenodd" d="M99.9967 29.5982C100.614 31.727 95.4318 33.5364 95.4318 30.4469C96.1999 30.7871 98.4007 30.4711 99.9967 29.5982ZM97.7324 25.8952C97.8207 25.9269 97.8725 26.0147 97.8622 26.1039L97.8518 26.1484L97.1458 28.1079L97.1331 28.1551V28.1551C97.109 28.2558 97.1065 28.3503 97.1311 28.4223C97.1431 28.4574 97.1613 28.4868 97.1872 28.5119C97.2167 28.5404 97.255 28.5571 97.3029 28.5616L97.3541 28.5621C97.4633 28.5548 97.5577 28.6373 97.5649 28.7463C97.5722 28.8554 97.4896 28.9497 97.3804 28.9569C97.2025 28.9688 97.0373 28.9177 96.9116 28.7962C96.8393 28.7263 96.7878 28.643 96.7561 28.5502C96.7033 28.3958 96.7077 28.2301 96.7477 28.0631L96.7621 28.008L96.7899 27.9234L96.8007 27.8977L97.4789 26.0145C97.5159 25.9116 97.6294 25.8582 97.7324 25.8952ZM95.9453 25.3257C96.1495 25.3408 96.2974 25.5849 96.2752 25.8707C96.2534 26.1565 96.0701 26.3755 95.8658 26.3599C95.6614 26.3437 95.5135 26.0996 95.5359 25.8143C95.5576 25.5286 95.7409 25.3095 95.9453 25.3257ZM101.781 25.4403C101.82 25.7498 101.673 26.0233 101.452 26.0514C101.23 26.0796 101.019 25.8511 100.98 25.5416C100.94 25.2322 101.088 24.9592 101.309 24.9311C101.53 24.9034 101.742 25.1314 101.781 25.4403ZM96.5159 23.3844C96.7006 23.4867 96.8341 23.6007 96.9152 23.6912C97.0612 23.8541 97.0473 24.1043 96.8842 24.25C96.7374 24.3812 96.5198 24.3831 96.3714 24.2635L96.3037 24.1981L96.2341 24.1416L96.1313 24.0765V24.0765C95.9666 23.9852 95.7905 23.9503 95.5998 23.9921C95.4366 24.028 95.3023 24.1269 95.1925 24.2746C95.1345 24.3525 95.0949 24.4267 95.0735 24.4767L95.0609 24.5094C94.9918 24.7168 94.7674 24.829 94.5598 24.7599C94.3521 24.6909 94.2398 24.4668 94.3089 24.2594C94.3487 24.1402 94.4271 23.9761 94.5562 23.8026C94.7717 23.513 95.0604 23.3002 95.4297 23.219C95.8249 23.1325 96.193 23.2054 96.5159 23.3844ZM101.654 22.498C102.379 22.5103 103.024 22.8222 103.361 23.3263C103.482 23.5081 103.433 23.7538 103.251 23.8751C103.089 23.9829 102.876 23.9561 102.746 23.8211L102.701 23.7654C102.518 23.4905 102.119 23.2975 101.641 23.2894C101.196 23.2818 100.839 23.4036 100.561 23.6L100.504 23.6419V23.6419L100.42 23.7132V23.7132L100.373 23.761C100.236 23.9309 99.986 23.957 99.816 23.8194C99.6459 23.6819 99.6197 23.4327 99.7574 23.2628C99.8231 23.1818 99.9376 23.071 100.103 22.9539C100.513 22.6646 101.032 22.4874 101.654 22.498Z" fill="#0A1B64"/>
<path fill-rule="evenodd" clip-rule="evenodd" d="M118.845 95.6239C118.859 95.7184 118.794 95.8065 118.7 95.8208L117.963 95.928L117.261 96.025L115.822 96.2146L114.453 96.3862C114.359 96.3977 114.272 96.3302 114.261 96.2354C114.249 96.1406 114.317 96.0544 114.412 96.0428L115.778 95.8715L116.746 95.7452L117.914 95.5856L118.648 95.4788C118.743 95.4645 118.831 95.5295 118.845 95.6239ZM118.219 92.9089C118.236 93.0029 118.174 93.0928 118.08 93.1098L117.878 93.1439L117.363 93.2174L116.71 93.2978L116.134 93.3621L115.281 93.451L114.227 93.5535L112.168 93.7375C112.073 93.7454 111.989 93.6747 111.981 93.5795C111.973 93.4843 112.044 93.4007 112.139 93.3928L113.108 93.3086L114.194 93.2091L115.456 93.0856L116.292 92.9969L117.006 92.9141L117.584 92.838L117.924 92.7859L118.018 92.7695C118.112 92.7525 118.202 92.8149 118.219 92.9089ZM117.12 90.5381C117.134 90.6325 117.069 90.7207 116.975 90.735L116.838 90.7547L116.369 90.811L116.01 90.8462L115.615 90.8795L114.959 90.9261L114.481 90.9549L113.914 90.9848L112.984 91.0261L112.026 91.0605L110.745 91.0957L110.238 91.1061C110.142 91.1077 110.063 91.0315 110.062 90.936C110.06 90.8405 110.136 90.7618 110.232 90.7603L111.372 90.7339L111.887 90.7188L112.907 90.683L113.897 90.6394L114.461 90.6096L114.935 90.581L115.584 90.5349L115.974 90.5021L116.328 90.4675L116.645 90.4311L116.923 90.393C117.017 90.3787 117.106 90.4436 117.12 90.5381Z" fill="#003CE5"/>
<path fill-rule="evenodd" clip-rule="evenodd" d="M36.9922 132.613L37.8144 133.065L39.105 133.754L40.402 134.424L41.5651 135.006L42.1837 135.309L42.8246 135.617L43.4862 135.929L44.1667 136.245L44.8644 136.562L45.5775 136.878L46.3042 137.193L47.043 137.506L48.1697 137.965V137.965L48.9308 138.264L49.3136 138.41V138.41L50.0828 138.696C50.5969 138.883 51.1132 139.064 51.6294 139.236L52.4032 139.486C52.7898 139.608 53.1756 139.725 53.5598 139.835L51.9911 142.734L51.7296 143.202L51.5792 143.458L51.4689 143.628V143.628C50.665 144.757 49.5592 144.908 48.8788 144.873L48.7043 144.86L48.5542 144.841L48.3819 144.81L48.2583 144.779L44.6798 143.429L41.5466 142.215L39.3736 141.353L37.3979 140.554L35.9159 139.942L34.8503 139.495L33.9213 139.099L33.0119 138.704L31.698 138.121V138.121L30.8642 137.74L30.0711 137.367L29.325 137.006C28.9646 136.828 28.624 136.655 28.3067 136.488C27.6519 136.218 27.2348 134.913 28.6172 134.521L28.9647 134.43L29.2443 134.369L29.4471 134.332L29.6674 134.298L29.9091 134.266L30.3205 134.224L30.8018 134.189L31.168 134.169L31.5751 134.152L32.2707 134.132L32.7967 134.122C34.7521 134.093 36.122 133.336 36.9922 132.613ZM34.9863 133.881C34.8906 133.878 34.8112 133.954 34.8089 134.049C34.8066 134.145 34.8822 134.224 34.9778 134.226C35.7006 134.244 36.4745 134.487 36.964 134.839C37.4407 135.182 37.5441 135.528 37.2456 135.838C37.0143 136.078 36.6801 136.065 36.2358 135.82C35.9685 135.672 35.6796 135.449 35.3818 135.169C35.2467 135.042 35.1151 134.909 34.9893 134.774L34.8052 134.57L34.691 134.437L34.5784 134.3C34.4414 134.125 34.1743 134.318 34.2978 134.502C35.1621 135.795 34.4132 136.811 33.6354 136.353C33.4384 136.237 33.3756 135.964 33.4393 135.56C33.4682 135.376 33.5215 135.178 33.5923 134.975L33.6259 134.882L33.7199 134.648L33.7707 134.538C33.8127 134.452 33.7771 134.348 33.6912 134.306C33.6053 134.264 33.5016 134.3 33.4596 134.385L33.433 134.441L33.371 134.584L33.3014 134.761L33.2653 134.862C33.1881 135.083 33.1296 135.3 33.0972 135.506C33.0207 135.991 33.0934 136.375 33.377 136.595L33.4597 136.651L33.5329 136.691C34.3542 137.11 35.1134 136.43 35.0103 135.415L34.9898 135.27L35.1447 135.421L35.3026 135.565C35.5647 135.797 35.8214 135.986 36.0682 136.123C36.6342 136.435 37.1325 136.454 37.4951 136.078C37.9667 135.588 37.7938 135.01 37.1663 134.559C36.6183 134.165 35.7766 133.9 34.9863 133.881ZM3.83313 104.666L4.02306 104.674L4.18644 104.689L4.3646 104.712L4.66881 104.762L5.16572 104.858L7.33272 105.306C8.78449 105.6 10.358 105.183 11.4473 104.767L12.4517 105.658L13.6377 106.685L14.5675 107.474L15.5907 108.325L16.1324 108.768L16.9772 109.449L17.5591 109.91L18.455 110.608L19.0648 111.073L19.6825 111.536L20.306 111.994L20.9335 112.446L21.5629 112.888L22.1925 113.32L22.8201 113.738C22.9244 113.806 23.0286 113.874 23.1326 113.941L23.7538 114.335L24.062 114.524V114.524L24.6723 114.889L22.3645 117.562L21.9951 117.977L21.715 118.271V118.271L21.5867 118.391V118.391L21.5654 118.408C20.5549 119.223 19.608 119.024 19.0764 118.791L18.9361 118.724L18.8203 118.661L18.6495 118.55L12.4499 113.864L8.13855 110.567L6.02609 108.929L4.41974 107.664L3.45473 106.886L2.95243 106.468L2.74896 106.293C2.25609 105.863 2.18543 104.81 3.50628 104.68L3.65138 104.669L3.83313 104.666V104.666ZM9.60307 105.637C9.52452 105.635 9.45192 105.686 9.43102 105.766C9.40664 105.858 9.46184 105.953 9.55433 105.977C10.253 106.161 10.9495 106.577 11.344 107.032C11.7284 107.476 11.7488 107.836 11.3866 108.069C11.2782 108.138 11.1686 108.167 11.0534 108.159C10.6819 108.134 10.2394 107.736 9.79272 107.083C9.68025 106.919 9.57281 106.746 9.47175 106.571L9.32512 106.307L9.23534 106.135L9.14823 105.956C9.05557 105.754 8.75105 105.88 8.82842 106.088C9.36961 107.545 8.40556 108.36 7.75517 107.736C7.61112 107.597 7.59389 107.368 7.69706 107.055C7.75482 106.88 7.84719 106.69 7.96464 106.494L8.07832 106.314C8.09688 106.286 8.11516 106.259 8.133 106.233L8.20985 106.126L8.30758 106C8.36838 105.926 8.35781 105.817 8.28398 105.756C8.22491 105.708 8.14325 105.705 8.08181 105.743L8.0402 105.78L7.95941 105.883L7.83571 106.055C7.77825 106.139 7.72163 106.226 7.66749 106.316C7.53789 106.532 7.43481 106.745 7.36806 106.947C7.24178 107.33 7.25123 107.662 7.44394 107.906L7.51503 107.985L7.57695 108.041C8.27768 108.637 9.17242 108.153 9.30943 107.145L9.32218 107.021L9.32307 106.996L9.41961 107.148L9.50679 107.278C10.0105 108.014 10.5164 108.47 11.0303 108.504C11.2199 108.517 11.4031 108.469 11.5738 108.36C12.146 107.993 12.1118 107.39 11.606 106.806C11.201 106.338 10.5308 105.919 9.83334 105.698L9.64263 105.642L9.60307 105.637Z" fill="#002FC4"/>
<path fill-rule="evenodd" clip-rule="evenodd" d="M49.2323 73.313L49.8904 75.1585C47.8959 75.0485 46.5685 74.6265 46.2499 73.7382L46.2992 73.8372C46.4693 74.1422 46.7559 74.3822 47.1187 74.4851C47.7676 74.6691 48.4404 74.3522 48.7232 73.7648L48.7716 73.6515L48.8052 73.5494L48.8003 73.5704L48.8494 73.501C48.8854 73.4583 48.9278 73.4301 48.9856 73.4129C49.0725 73.3872 49.1549 73.3535 49.2323 73.313Z" fill="#FF88C3"/>
<path fill-rule="evenodd" clip-rule="evenodd" d="M46.5169 63.9634C47.2403 63.7489 48.0004 64.1608 48.2146 64.8832C48.3761 65.4279 48.1811 65.9937 47.7654 66.331C48.189 66.4583 48.5416 66.7904 48.6768 67.2463C48.8187 67.7248 48.6856 68.2194 48.3694 68.5613C48.751 68.7072 49.0626 69.0233 49.1878 69.4454C49.3309 69.9277 49.1945 70.4265 48.8728 70.7687C49.3505 70.8661 49.7595 71.2171 49.9076 71.7165C50.1218 72.439 49.709 73.1985 48.9856 73.4129C48.9278 73.4301 48.8853 73.4583 48.8494 73.501L48.8003 73.5704L48.8052 73.5494L48.7715 73.6515C48.5246 74.3106 47.8081 74.6806 47.1187 74.4851C46.393 74.2793 45.9722 73.5248 46.1787 72.7999C46.2248 72.6381 46.3039 72.4404 46.428 72.2221L46.3979 72.2137C45.6723 72.0076 45.2518 71.2529 45.4586 70.528C45.5047 70.3665 45.5839 70.1689 45.7079 69.9508C45.0945 69.6804 44.7587 68.9927 44.9477 68.3297C44.9947 68.1647 45.0762 67.9621 45.2047 67.7384C45.157 67.723 45.1081 67.7043 45.0597 67.6826C44.3719 67.3735 44.0654 66.5658 44.3754 65.8785C44.4497 65.7137 44.5716 65.4962 44.7499 65.2534C45.1865 64.6588 45.7624 64.187 46.5169 63.9634Z" fill="#FFB4DE"/>
<path fill-rule="evenodd" clip-rule="evenodd" d="M48.5529 70.6034C48.6472 70.5875 48.7365 70.6509 48.7524 70.7451C48.7683 70.8392 48.7048 70.9285 48.6105 70.9445C47.8092 71.0802 47.1088 71.6123 46.6854 72.1599C46.627 72.2355 46.5182 72.2495 46.4425 72.1912C46.3669 72.1328 46.3529 72.0242 46.4114 71.9486C46.8829 71.3387 47.6492 70.7564 48.5529 70.6034ZM47.5842 68.4477C47.7863 68.3962 47.9908 68.3676 48.1973 68.3641C48.2929 68.3624 48.3717 68.4385 48.3733 68.534C48.3749 68.6296 48.2986 68.7083 48.203 68.71C48.0241 68.713 47.8462 68.7379 47.6696 68.7829C47.1293 68.9205 46.6352 69.2327 46.2144 69.6293L46.1493 69.6919L46.0407 69.8028L45.9617 69.8908L45.9337 69.9247C45.8741 69.9994 45.7652 70.0119 45.6903 69.9524C45.6155 69.893 45.6031 69.7842 45.6627 69.7094L45.7365 69.6226L45.7852 69.5694L45.9055 69.4464L45.9768 69.3778C46.4367 68.9443 46.9785 68.602 47.5842 68.4477ZM47.5848 66.1876C47.6802 66.1806 47.7632 66.2521 47.7702 66.3474C47.7772 66.4426 47.7055 66.5256 47.6101 66.5326C46.6783 66.6013 45.9428 67.0986 45.4521 67.691C45.3911 67.7646 45.2819 67.775 45.2083 67.7141C45.1346 67.6532 45.1243 67.5442 45.1853 67.4706C45.7304 66.8126 46.5408 66.2646 47.5848 66.1876Z" fill="#003CE5"/>
</svg>
