<?xml version="1.0" encoding="UTF-8"?>
<svg width="52px" height="42px" viewBox="0 0 52 42" version="1.1" xmlns="http://www.w3.org/2000/svg" xmlns:xlink="http://www.w3.org/1999/xlink">
    <title>spots</title>
    <g id="Landing" stroke="none" stroke-width="1" fill="none" fill-rule="evenodd">
        <g id="1.1.1.0.0.BS_landingViaBCP_STP_desktop" transform="translate(-410.000000, -674.000000)">
            <g id="spots" transform="translate(410.800000, 674.000000)">
                <path d="M25.2,0 C36.7979797,0 46.2,9.40202025 46.2,21 C46.2,22.4385397 46.0553561,23.8432959 45.7798187,25.2005184 L4.62018132,25.2005184 C4.34464392,23.8432959 4.2,22.4385397 4.2,21 C4.2,9.40202025 13.6020203,0 25.2,0 Z" id="Path" fill="#8FBAFC"></path>
                <path d="M2.8,21 L47.6,21 C49.1463973,21 50.4,22.2536027 50.4,23.8 C50.4,25.3463973 49.1463973,26.6 47.6,26.6 L2.8,26.6 C1.2536027,26.6 0,25.3463973 0,23.8 C0,22.2536027 1.2536027,21 2.8,21 Z" id="Rectangle" fill="#FF9333"></path>
                <path d="M4.4430977,31.8183888 L4.51347359,31.2776015 C4.87427464,28.5556819 6.27289598,27.529098 8.70933762,28.1978497 L25.2100181,33.0645994 L25.2098,33.0848 L41.4356619,28.2990787 C44.0358968,27.4810228 45.5228577,28.4815603 45.8965445,31.3006913 L46.0331666,32.383205 C46.4868,36.2654716 46.4180336,40.1081681 41.4356619,41.5051741 C35.9898137,43.0321342 28.7584338,40.6398091 28.0194374,40.3900352 L25.2,39.4502351 L25.2,39.4502351 L25.1999546,39.4304831 L21.9301166,40.5165498 C20.1006408,41.0904846 13.8282643,42.8430705 8.97435619,41.4820843 C3.87611535,40.0525898 3.92267711,36.062329 4.4092927,32.0892254 L4.51347359,31.2776015 L4.4430977,31.8183888 Z" id="Path" fill="#5B90E9"></path>
                <path d="M42,33.6 L41.9879804,33.8982222 C41.92543,34.7643201 41.6007246,36.4792429 40.6,37.8 C39.7528405,38.9180817 38.2284915,39.4402218 36.4468744,39.1167343 C33.6690086,38.6123584 31.3200505,37.5393841 29.4,35.8978116 L31.4726096,35.1145397 C36.2265959,33.33871 39.1331371,32.4116926 40.1922329,32.3334877 C42,32.2 42,32.9 42,33.6 Z M8.40288227,33.7366885 L8.4013582,33.4097171 C8.41494022,32.7796156 8.56434246,32.2121352 10.2077671,32.3334877 C11.4129451,32.4224795 15.0103561,33.6105875 21,35.8978116 C19.0799495,37.5393841 16.7309914,38.6123584 13.9531256,39.1167343 C12.1715085,39.4402218 10.6471595,38.9180817 9.8,37.8 C8.73256044,36.3911925 8.43428047,34.5339119 8.40288227,33.7366885 L8.40288227,33.7366885 Z" id="Shape" fill="#D0E5FF"></path>
            </g>
        </g>
    </g>
</svg>